<svg viewBox="0 0 1090 400" xmlns="http://www.w3.org/2000/svg"><g><g><g><g><g><line x1="41.171875" y1="376.921875" x2="36.171875" y2="376.921875" style="visibility: inherit;" fill="rgb(0, 0, 0)" stroke="rgb(204, 204, 204)" stroke-width="1px"></line><line x1="41.171875" y1="342.65625" x2="36.171875" y2="342.65625" style="visibility: inherit;" fill="rgb(0, 0, 0)" stroke="rgb(204, 204, 204)" stroke-width="1px"></line><line x1="41.171875" y1="308.390625" x2="36.171875" y2="308.390625" style="visibility: inherit;" fill="rgb(0, 0, 0)" stroke="rgb(204, 204, 204)" stroke-width="1px"></line><line x1="41.171875" y1="274.125" x2="36.171875" y2="274.125" style="visibility: inherit;" fill="rgb(0, 0, 0)" stroke="rgb(204, 204, 204)" stroke-width="1px"></line><line x1="41.171875" y1="239.859375" x2="36.171875" y2="239.859375" style="visibility: inherit;" fill="rgb(0, 0, 0)" stroke="rgb(204, 204, 204)" stroke-width="1px"></line><line x1="41.171875" y1="205.59374999999997" x2="36.171875" y2="205.59374999999997" style="visibility: inherit;" fill="rgb(0, 0, 0)" stroke="rgb(204, 204, 204)" stroke-width="1px"></line><line x1="41.171875" y1="171.32812500000003" x2="36.171875" y2="171.32812500000003" style="visibility: inherit;" fill="rgb(0, 0, 0)" stroke="rgb(204, 204, 204)" stroke-width="1px"></line><line x1="41.171875" y1="137.06250000000006" x2="36.171875" y2="137.06250000000006" style="visibility: inherit;" fill="rgb(0, 0, 0)" stroke="rgb(204, 204, 204)" stroke-width="1px"></line><line x1="41.171875" y1="102.79687499999999" x2="36.171875" y2="102.79687499999999" style="visibility: inherit;" fill="rgb(0, 0, 0)" stroke="rgb(204, 204, 204)" stroke-width="1px"></line><line x1="41.171875" y1="68.53125000000003" x2="36.171875" y2="68.53125000000003" style="visibility: inherit;" fill="rgb(0, 0, 0)" stroke="rgb(204, 204, 204)" stroke-width="1px"></line><line x1="41.171875" y1="34.265625000000014" x2="36.171875" y2="34.265625000000014" style="visibility: inherit;" fill="rgb(0, 0, 0)" stroke="rgb(204, 204, 204)" stroke-width="1px"></line><line x1="41.171875" y1="0" x2="36.171875" y2="0" style="visibility: inherit;" fill="rgb(0, 0, 0)" stroke="rgb(204, 204, 204)" stroke-width="1px"></line></g><g transform="translate(31.171875, 0)"><text style="text-anchor: end; visibility: hidden; font-family: Roboto, sans-serif; font-size: 12px; font-weight: 200;" x="0" y="376.921875" dx="0em" dy="0.3em" fill="rgb(255, 255, 255)" stroke="none" stroke-width="1px">0</text><text style="text-anchor: end; visibility: inherit; font-family: Roboto, sans-serif; font-size: 12px; font-weight: 200;" x="0" y="342.65625" dx="0em" dy="0.3em" fill="rgb(255, 255, 255)" stroke="none" stroke-width="1px">0.1</text><text style="text-anchor: end; visibility: inherit; font-family: Roboto, sans-serif; font-size: 12px; font-weight: 200;" x="0" y="308.390625" dx="0em" dy="0.3em" fill="rgb(255, 255, 255)" stroke="none" stroke-width="1px">0.2</text><text style="text-anchor: end; visibility: inherit; font-family: Roboto, sans-serif; font-size: 12px; font-weight: 200;" x="0" y="274.125" dx="0em" dy="0.3em" fill="rgb(255, 255, 255)" stroke="none" stroke-width="1px">0.3</text><text style="text-anchor: end; visibility: inherit; font-family: Roboto, sans-serif; font-size: 12px; font-weight: 200;" x="0" y="239.859375" dx="0em" dy="0.3em" fill="rgb(255, 255, 255)" stroke="none" stroke-width="1px">0.4</text><text style="text-anchor: end; visibility: inherit; font-family: Roboto, sans-serif; font-size: 12px; font-weight: 200;" x="0" y="205.59374999999997" dx="0em" dy="0.3em" fill="rgb(255, 255, 255)" stroke="none" stroke-width="1px">0.5</text><text style="text-anchor: end; visibility: inherit; font-family: Roboto, sans-serif; font-size: 12px; font-weight: 200;" x="0" y="171.32812500000003" dx="0em" dy="0.3em" fill="rgb(255, 255, 255)" stroke="none" stroke-width="1px">0.6</text><text style="text-anchor: end; visibility: inherit; font-family: Roboto, sans-serif; font-size: 12px; font-weight: 200;" x="0" y="137.06250000000006" dx="0em" dy="0.3em" fill="rgb(255, 255, 255)" stroke="none" stroke-width="1px">0.7</text><text style="text-anchor: end; visibility: inherit; font-family: Roboto, sans-serif; font-size: 12px; font-weight: 200;" x="0" y="102.79687499999999" dx="0em" dy="0.3em" fill="rgb(255, 255, 255)" stroke="none" stroke-width="1px">0.8</text><text style="text-anchor: end; visibility: inherit; font-family: Roboto, sans-serif; font-size: 12px; font-weight: 200;" x="0" y="68.53125000000003" dx="0em" dy="0.3em" fill="rgb(255, 255, 255)" stroke="none" stroke-width="1px">0.9</text><text style="text-anchor: end; visibility: inherit; font-family: Roboto, sans-serif; font-size: 12px; font-weight: 200;" x="0" y="34.265625000000014" dx="0em" dy="0.3em" fill="rgb(255, 255, 255)" stroke="none" stroke-width="1px">1</text><text style="text-anchor: end; visibility: hidden; font-family: Roboto, sans-serif; font-size: 12px; font-weight: 200;" x="0" y="0" dx="0em" dy="0.3em" fill="rgb(255, 255, 255)" stroke="none" stroke-width="1px">1.1</text></g><line x1="41.171875" y1="0" x2="41.171875" y2="376.921875" fill="rgb(0, 0, 0)" stroke="rgb(204, 204, 204)" stroke-width="1px"></line></g></g><g transform="translate(41, 0)" clip-path="url(#clip_0)"><clipPath id="clip_0"><rect width="1048" height="376"></rect></clipPath><g><g><g><line x1="0" y1="0" x2="0" y2="376.921875" fill="rgb(0, 0, 0)" stroke="rgb(189, 189, 189)" stroke-width="1px" opacity="0.25"></line><line x1="116.53645833333333" y1="0" x2="116.53645833333333" y2="376.921875" fill="rgb(0, 0, 0)" stroke="rgb(189, 189, 189)" stroke-width="1px" opacity="0.25"></line><line x1="233.07291666666666" y1="0" x2="233.07291666666666" y2="376.921875" fill="rgb(0, 0, 0)" stroke="rgb(189, 189, 189)" stroke-width="1px" opacity="0.25"></line><line x1="349.609375" y1="0" x2="349.609375" y2="376.921875" fill="rgb(0, 0, 0)" stroke="rgb(189, 189, 189)" stroke-width="1px" opacity="0.25"></line><line x1="466.1458333333333" y1="0" x2="466.1458333333333" y2="376.921875" fill="rgb(0, 0, 0)" stroke="rgb(189, 189, 189)" stroke-width="1px" opacity="0.25"></line><line x1="582.6822916666667" y1="0" x2="582.6822916666667" y2="376.921875" fill="rgb(0, 0, 0)" stroke="rgb(189, 189, 189)" stroke-width="1px" opacity="0.25"></line><line x1="699.21875" y1="0" x2="699.21875" y2="376.921875" fill="rgb(0, 0, 0)" stroke="rgb(189, 189, 189)" stroke-width="1px" opacity="0.25"></line><line x1="815.7552083333334" y1="0" x2="815.7552083333334" y2="376.921875" fill="rgb(0, 0, 0)" stroke="rgb(189, 189, 189)" stroke-width="1px" opacity="0.25"></line><line x1="932.2916666666666" y1="0" x2="932.2916666666666" y2="376.921875" fill="rgb(0, 0, 0)" stroke="rgb(189, 189, 189)" stroke-width="1px" opacity="0.25"></line><line x1="1048.828125" y1="0" x2="1048.828125" y2="376.921875" fill="rgb(0, 0, 0)" stroke="rgb(189, 189, 189)" stroke-width="1px" opacity="0.25"></line></g><g><line x1="0" y1="376.921875" x2="1048.828125" y2="376.921875" fill="rgb(0, 0, 0)" stroke="rgb(189, 189, 189)" stroke-width="1px" opacity="0.25"></line><line x1="0" y1="342.65625" x2="1048.828125" y2="342.65625" fill="rgb(0, 0, 0)" stroke="rgb(189, 189, 189)" stroke-width="1px" opacity="0.25"></line><line x1="0" y1="308.390625" x2="1048.828125" y2="308.390625" fill="rgb(0, 0, 0)" stroke="rgb(189, 189, 189)" stroke-width="1px" opacity="0.25"></line><line x1="0" y1="274.125" x2="1048.828125" y2="274.125" fill="rgb(0, 0, 0)" stroke="rgb(189, 189, 189)" stroke-width="1px" opacity="0.25"></line><line x1="0" y1="239.859375" x2="1048.828125" y2="239.859375" fill="rgb(0, 0, 0)" stroke="rgb(189, 189, 189)" stroke-width="1px" opacity="0.25"></line><line x1="0" y1="205.59374999999997" x2="1048.828125" y2="205.59374999999997" fill="rgb(0, 0, 0)" stroke="rgb(189, 189, 189)" stroke-width="1px" opacity="0.25"></line><line x1="0" y1="171.32812500000003" x2="1048.828125" y2="171.32812500000003" fill="rgb(0, 0, 0)" stroke="rgb(189, 189, 189)" stroke-width="1px" opacity="0.25"></line><line x1="0" y1="137.06250000000006" x2="1048.828125" y2="137.06250000000006" fill="rgb(0, 0, 0)" stroke="rgb(189, 189, 189)" stroke-width="1px" opacity="0.25"></line><line x1="0" y1="102.79687499999999" x2="1048.828125" y2="102.79687499999999" fill="rgb(0, 0, 0)" stroke="rgb(189, 189, 189)" stroke-width="1px" opacity="0.25"></line><line x1="0" y1="68.53125000000003" x2="1048.828125" y2="68.53125000000003" fill="rgb(0, 0, 0)" stroke="rgb(189, 189, 189)" stroke-width="1px" opacity="0.25"></line><line x1="0" y1="34.265625000000014" x2="1048.828125" y2="34.265625000000014" fill="rgb(0, 0, 0)" stroke="rgb(189, 189, 189)" stroke-width="1px" opacity="0.25"></line><line x1="0" y1="0" x2="1048.828125" y2="0" fill="rgb(0, 0, 0)" stroke="rgb(189, 189, 189)" stroke-width="1px" opacity="0.25"></line></g></g></g><g><g><line x1="0" y1="376.921875" x2="1048.828125" y2="376.921875" fill="rgb(0, 0, 0)" stroke="rgb(153, 153, 153)" stroke-width="1.5px"></line></g></g><g><g><line x1="116.53645833333333" y1="0" x2="116.53645833333333" y2="376.921875" fill="rgb(0, 0, 0)" stroke="rgb(153, 153, 153)" stroke-width="1.5px"></line></g></g><g><g><g><g><g><path style="fill: none;" stroke="rgb(187, 187, 187)" stroke-width="2px" d="M134.01692708333331,-10.167781718890057L139.84375,29.163850256855195L145.67057291666669,43.28979800818826L151.49739583333331,-3.7814074089245713L157.32421875,5.835935139442145L163.15104166666666,35.97102818949371L168.97786458333334,76.42574801157109L174.8046875,91.68897497936794L180.63151041666666,111.61216625920207L186.45833333333334,130.19192072007294L192.28515625,143.65636851623552L198.11197916666666,148.40276803958278L203.93880208333334,156.21325322639225L209.765625,161.09256970846505L215.59244791666666,163.92630875396395L221.41927083333334,163.67227766654736L227.24609375,164.07357303526436L233.07291666666666,171.2912832072746L238.89973958333334,177.0736562199257L244.7265625,185.20669507961122L250.55338541666669,177.62673388138697L256.3802083333333,183.06512544885385L262.20703125,184.30271664273542L268.03385416666663,191.79137411959803L273.86067708333337,187.9035196568984L279.6875,193.95519184400968L285.51432291666663,188.65043145314758L291.34114583333337,193.37109686776836L297.16796875,203.8800698398205L302.99479166666663,212.40221472307306L308.8216145833333,213.68048439320168L314.6484375,213.24942895637764L320.4752604166667,211.30880548661125L326.3020833333333,208.7175276058298L332.12890625,207.89099969831952L337.9557291666667,211.38846272148277L343.7825520833333,221.63225082212657L349.609375,226.9724044341448L355.4361979166667,231.73073935930552L361.2630208333333,225.82533148050942L367.08984375,219.19625542828712L372.9166666666667,227.44421156369515L378.7434895833333,225.45104730562576L384.5703125,229.16807802518932L390.3971354166667,236.398595107886L396.2239583333333,233.69988597600565L402.05078125,237.6797144889045L407.8776041666667,239.32164483990323L413.7044270833333,240.4250656245744L419.53125,243.3583420073945L425.3580729166667,232.0704272862232L431.1848958333333,238.13353845632196L437.01171875,244.07554831896127L442.8385416666667,230.05462501633687L448.6653645833333,236.4942401181976L454.4921875,245.31198233105735L460.3190104166667,250.09745464615844L466.1458333333333,249.3783586685676L471.97265625,255.1194297065479L477.7994791666667,256.02942907229914L483.62630208333337,259.34342322224893L489.453125,260.80091666526806L495.27994791666663,238.66529913975126L501.10677083333337,244.6067110574742L506.93359375,254.53388617308437L512.7604166666666,261.04882995111643L518.5872395833334,253.02272433421254L524.4140625,261.46661485660815L530.2408854166666,262.39603838505593L536.0677083333333,267.10235928629186L541.89453125,270.07384933164326L547.7213541666667,269.2106591116971L553.5481770833334,265.3168533687494L559.375,267.133893357274L565.2018229166666,273.58301482405193L571.0286458333333,271.70739462856017L576.85546875,271.60238441904517L582.6822916666667,273.6871846378901L588.5091145833334,277.5778584539031L594.3359375,280.9032019751004L600.1627604166666,277.305669166996L605.9895833333333,281.34546532793576L611.81640625,275.3192059755399L617.6432291666666,279.84476981409335L623.4700520833334,287.5000234958035L629.296875,290.16850459692637L635.1236979166666,291.3457604853005L640.9505208333334,283.99821908966845L646.77734375,285.6319592167207L652.6041666666666,288.09658813144375L658.4309895833334,287.3638447246141L664.2578125,288.1264109452776L670.0846354166666,285.24317592733877L675.9114583333334,284.84362760322557L681.73828125,289.8259252893538L687.5651041666666,290.6993833554975L693.3919270833334,289.2537748451198L699.21875,287.5961639581719L705.0455729166667,288.4253254304736L710.8723958333334,278.09618838178574L716.69921875,275.53391598863874L722.5260416666666,289.0382718049942L728.3528645833333,292.2246861536255L734.1796875,293.4047360683352L740.0065104166667,295.0545183605996L745.8333333333334,294.35490196810196L751.66015625,279.6597402270349L757.4869791666666,288.0049825204961L763.3138020833333,289.8229107687132L769.140625,298.19382754962186L774.9674479166667,293.2622242741319L780.7942708333334,301.37254039071695L786.62109375,304.65939244980484L792.4479166666666,306.3076949407078L798.2747395833333,302.1278826181988L804.1015625,303.0778132420346L809.9283854166667,306.5889628956655L815.7552083333334,306.8704847981372L821.58203125,309.7602990321346L827.4088541666666,305.43281196107137L833.2356770833333,306.1048183570783L839.0625,302.66521767056616L844.8893229166667,302.83656762351325L850.7161458333334,306.29419582205105L856.54296875,301.1450114778703L862.3697916666666,303.3686385879755L868.1966145833333,307.9676310627812L874.0234375,305.28915392177726L879.8502604166666,310.47671246419804L885.6770833333334,305.50776609377834L891.50390625,306.00247525909856L897.3307291666666,301.2275082311888L903.1575520833334,297.89766974605527L908.984375,270.4796834441716L914.8111979166666,281.5379440355789L920.6380208333334,286.0566060874457L926.46484375,294.6718474698719L932.2916666666666,301.4597541722004L938.1184895833334,305.74173087875363L943.9453125,309.3183463944141L949.7721354166666,310.9365926587221L955.5989583333334,294.05961759484626L961.42578125,291.93936603127014L967.2526041666667,300.59596110050734L973.0794270833334,307.63328577266543L978.90625,310.3921158652688L984.7330729166666,309.72662119365845L990.5598958333333,309.904624420499L996.38671875,313.51383588368157L1002.2135416666667,314.67203538938287L1008.0403645833334,316.3589502402331" fill="none"></path></g><g><path style="fill: none;" stroke="rgb(0, 153, 136)" stroke-width="2px" d="M134.01692708333331,-37.33241878403345L139.84375,7.581268821671714L145.67057291666669,42.83808060252422L151.49739583333331,32.625131842970376L157.32421875,16.370976790256382L163.15104166666666,41.30339039598613L168.97786458333334,69.23628592267292L174.8046875,96.54838960714598L180.63151041666666,115.81366071203031L186.45833333333334,137.63130721617992L192.28515625,149.34673549970896L198.11197916666666,148.70904294570136L203.93880208333334,154.89183193213887L209.765625,164.2503601235442L215.59244791666666,173.7384215253192L221.41927083333334,177.05911845642981L227.24609375,171.25079178622366L233.07291666666666,177.38444536503238L238.89973958333334,185.7525444784488L244.7265625,192.62800198171843L250.55338541666669,203.1042849488644L256.3802083333333,194.6093772136604L262.20703125,190.1617087078816L268.03385416666663,194.9595193877795L273.86067708333337,200.74747519922732L279.6875,207.5735218264698L285.51432291666663,212.9902646346399L291.34114583333337,214.00587696551716L297.16796875,219.30822890262996L302.99479166666663,224.47252729354628L308.8216145833333,229.73472476333694L314.6484375,232.9494629135848L320.4752604166667,234.08187153649817L326.3020833333333,241.00363384611452L332.12890625,235.32741774292845L337.9557291666667,239.6113819406827L343.7825520833333,240.97967073028303L349.609375,247.59065741766756L355.4361979166667,252.79083689347868L361.2630208333333,255.264385046308L367.08984375,258.1081291463651L372.9166666666667,252.24262573742567L378.7434895833333,254.69726252860954L384.5703125,251.9749461154046L390.3971354166667,258.12540429448893L396.2239583333333,264.94793814610676L402.05078125,268.05317433294925L407.8776041666667,277.3945387290783L413.7044270833333,277.39102071035603L419.53125,275.2980086360609L425.3580729166667,279.9521276271681L431.1848958333333,281.4216324666951L437.01171875,286.114934211513L442.8385416666667,289.54738016663754L448.6653645833333,273.08111477077534L454.4921875,274.78687638375493L460.3190104166667,282.69901187525477L466.1458333333333,283.2394734039533L471.97265625,288.5828900236043L477.7994791666667,297.25343722261664L483.62630208333337,304.93300333191564L489.453125,308.3772422004915L495.27994791666663,306.2086214613796L501.10677083333337,299.5799778054286L506.93359375,305.3300905263128L512.7604166666666,306.98788705140817L518.5872395833334,307.2878070644019L524.4140625,307.6129097159715L530.2408854166666,315.4436051042981L536.0677083333333,311.6061028488864L541.89453125,316.03596158483714L547.7213541666667,320.60542966073206L553.5481770833334,318.4271166037125L559.375,308.5028874222921L565.2018229166666,312.6878461020506L571.0286458333333,318.5234754727672L576.85546875,309.7421112198094L582.6822916666667,318.0499705613231L588.5091145833334,321.13246501367246L594.3359375,327.463664733654L600.1627604166666,334.84066991750416L605.9895833333333,337.2697859044761L611.81640625,338.96291467128043L617.6432291666666,332.49016735302115L623.4700520833334,337.19691104499526L629.296875,336.4977929617943L635.1236979166666,334.54167863006035L640.9505208333334,330.03122202675576L646.77734375,324.3834626812252L652.6041666666666,329.58948307071324L658.4309895833334,337.0679414000724L664.2578125,343.7145644446866L670.0846354166666,338.87111654833143L675.9114583333334,339.019989002322L681.73828125,342.150846394699L687.5651041666666,344.8372028253905L693.3919270833334,347.2848731270765L699.21875,351.86882734451945L705.0455729166667,343.0096319198489L710.8723958333334,345.13252605405853L716.69921875,339.5411868956009L722.5260416666666,340.90614134766577L728.3528645833333,345.0231006902332L734.1796875,347.8258948913403L740.0065104166667,353.21580844883437L745.8333333333334,356.3194010156594L751.66015625,355.41002307327926L757.4869791666666,340.96556094265634L763.3138020833333,344.8304295389453L769.140625,351.7151895074736L774.9674479166667,348.80360305016507L780.7942708333334,349.58517543116L786.62109375,349.5057523536386L792.4479166666666,354.98557539550865L798.2747395833333,356.0935896877365L804.1015625,354.53027695818867L809.9283854166667,356.54630170556385L815.7552083333334,359.4858120372257L821.58203125,362.28758766882413L827.4088541666666,362.9929658771491L833.2356770833333,365.36306699145115L839.0625,365.81587504037276L844.8893229166667,364.0076438587658L850.7161458333334,361.8812371795645L856.54296875,362.3442532173705L862.3697916666666,355.892305777429L868.1966145833333,357.7045190523038L874.0234375,356.62725784011L879.8502604166666,358.09147519084144L885.6770833333334,360.0560763144017L891.50390625,360.2922498180208L897.3307291666666,362.2387188403394L903.1575520833334,356.5516165763415L908.984375,357.7414888380074L914.8111979166666,341.88213807664687L920.6380208333334,347.394022133493L926.46484375,354.8461741954907L932.2916666666666,360.2064687038099L938.1184895833334,365.06378064737805L943.9453125,367.7987578577744L949.7721354166666,369.15013960689265L955.5989583333334,370.7350464916818L961.42578125,351.80540593771445L967.2526041666667,353.47350203732327L973.0794270833334,357.76621051703944L978.90625,362.4247483131526L984.7330729166666,364.4882423253527L990.5598958333333,360.24092257701506L996.38671875,356.7021827684456L1002.2135416666667,361.3952044551664L1008.0403645833334,365.60509750328583" fill="none"></path></g></g></g></g><g opacity="0.20000000298023224"><g><g><g><path style="fill: none;" stroke="rgb(187, 187, 187)" stroke-width="2px" d="M128.19010416666666,-17.79850105941289L134.01692708333331,39.58411173708738L139.84375,80.51522896438838L145.67057291666669,62.83106908947231L151.49739583333331,-71.09398429468271L157.32421875,19.858112901449225L163.15104166666666,80.4144369978458L168.97786458333334,136.49629219248894L174.8046875,114.44537908583882L180.63151041666666,141.3885320518166L186.45833333333334,158.00088628940287L192.28515625,163.82666195556524L198.11197916666666,155.516788110137L203.93880208333334,167.92347244732085L209.765625,168.40947966836396L215.59244791666666,168.17619783617556L221.41927083333334,163.29126973450184L227.24609375,164.6754794083536L233.07291666666666,182.11745262891057L238.89973958333334,185.74702546745542L244.7265625,197.40609279647472L250.55338541666669,166.25688187591734L256.3802083333333,191.2226741462946L262.20703125,186.15909815579656L268.03385416666663,203.02434117347002L273.86067708333337,182.0717439316213L279.6875,203.03269455023113L285.51432291666663,180.69329379871488L291.34114583333337,200.45209342427552L297.16796875,219.64352720696482L302.99479166666663,225.1854310305789L308.8216145833333,215.59788880683485L314.6484375,212.60284581966698L320.4752604166667,208.39787033200267L326.3020833333333,204.8306108247489L332.12890625,206.65120784472674L337.9557291666667,216.63465723674747L343.7825520833333,236.9979329388589L349.609375,234.98263484146446L355.4361979166667,238.86824174132195L361.2630208333333,216.96721966657788L367.08984375,209.2526413528249L372.9166666666667,239.81614576466382L378.7434895833333,222.46130091883242L384.5703125,234.7436241041869L390.3971354166667,247.24437073152512L396.2239583333333,229.65182227827611L402.05078125,243.64945725817233L407.8776041666667,241.7845403663814L413.7044270833333,242.08019680157304L419.53125,247.75825658161196L425.3580729166667,215.13855520449576L431.1848958333333,247.22820521146062L437.01171875,252.9885631129146L442.8385416666667,209.02324006240818L448.6653645833333,246.15366277098656L454.4921875,258.5385956503451L460.3190104166667,257.27566311880946L466.1458333333333,248.29971470218155L471.97265625,263.73103626351804L477.7994791666667,257.394428120926L483.62630208333337,264.3144144471735L489.453125,262.98715682979673L495.27994791666663,205.46187285147604L501.10677083333337,253.51882893405855L506.93359375,269.4246488464996L512.7604166666666,270.82124561816454L518.5872395833334,240.98356590885672L524.4140625,274.13245064020157L530.2408854166666,263.7901736777276L536.0677083333333,274.1618406381458L541.89453125,274.53108439967036L547.7213541666667,267.9158737817779L553.5481770833334,259.47614475432783L559.375,269.859453340061L565.2018229166666,283.25669702421874L571.0286458333333,268.8939643353224L576.85546875,271.4448691047728L582.6822916666667,276.81438496615743L588.5091145833334,283.4138691779226L594.3359375,285.8912172568962L600.1627604166666,271.90936995483935L605.9895833333333,287.4051595693454L611.81640625,266.2798169469461L617.6432291666666,286.63311557192355L623.4700520833334,298.9829040183686L629.296875,294.17122624861076L635.1236979166666,293.11164431786165L640.9505208333334,272.97690699622035L646.77734375,288.08256940729916L652.6041666666666,291.79353150352836L658.4309895833334,286.26472961436957L664.2578125,289.2702602762729L670.0846354166666,280.9183234004304L675.9114583333334,284.2443051170558L681.73828125,297.2993718185462L687.5651041666666,292.00957045471296L693.3919270833334,287.0853620795533L699.21875,285.10974762775004L705.0455729166667,289.66906763892626L710.8723958333334,262.60248280875385L716.69921875,271.69050739891827L722.5260416666666,309.29480552952737L728.3528645833333,297.00430767657235L734.1796875,295.17481094039977L740.0065104166667,297.5291917989962L745.8333333333334,293.3054773793556L751.66015625,257.61699761543423L757.4869791666666,300.52284596068785L763.3138020833333,292.54980314103886L769.140625,310.7502027209849L774.9674479166667,285.86481936089694L780.7942708333334,313.5380145655945L786.62109375,309.5896705384366L792.4479166666666,308.78014867706224L798.2747395833333,295.85816413443536L804.1015625,304.50270917778835L809.9283854166667,311.85568737611175L815.7552083333334,307.29276765184477L821.58203125,314.09502038313076L827.4088541666666,298.94158135447657L833.2356770833333,307.11282795108855L839.0625,297.50581664079806L844.8893229166667,303.09359255293384L850.7161458333334,311.4806381198578L856.54296875,293.4212349615991L862.3697916666666,306.70407925313344L868.1966145833333,314.8661197749898L874.0234375,301.2714382102713L879.8502604166666,318.25805027782917L885.6770833333334,298.0543465381488L891.50390625,306.74453900707886L897.3307291666666,294.065057689324L903.1575520833334,292.902912018355L908.984375,229.35270399134606L914.8111979166666,298.12533492268994L920.6380208333334,292.8345991652459L926.46484375,307.59470954351127L932.2916666666666,311.64161422569305L938.1184895833334,312.16469593858346L943.9453125,314.6832696679048L949.7721354166666,313.36396205518395L955.5989583333334,268.7441549990327L961.42578125,288.75898868590593L967.2526041666667,313.5808537043631L973.0794270833334,318.1892727809027L978.90625,314.53036100417376L984.7330729166666,308.7283791862428L990.5598958333333,310.1716292607598L996.38671875,318.92765307845553L1002.2135416666667,316.4093346479349L1008.0403645833334,318.8893225165084" fill="none"></path></g><g><path style="fill: none;" stroke="rgb(0, 153, 136)" stroke-width="2px" d="M122.36328125,-106.92854092642662L128.19010416666666,22.430585313588413L134.01692708333331,-7.793116394430391L139.84375,66.22057935968044L145.67057291666669,91.6109437476844L151.49739583333331,18.020451709628137L157.32421875,-7.3277373164891815L163.15104166666666,78.0738575924188L168.97786458333334,110.71338036842647L174.8046875,137.26882636360824L180.63151041666666,144.60672661475837L186.45833333333334,170.28653857111934L192.28515625,166.89692618139088L198.11197916666666,147.75325369834903L203.93880208333334,164.16165482997894L209.765625,178.28419219516218L215.59244791666666,187.9681046102196L221.41927083333334,182.03965797834098L227.24609375,162.53883268497884L233.07291666666666,186.58458934910595L238.89973958333334,198.30441779270768L244.7265625,202.941052492708L250.55338541666669,218.81858529802412L256.3802083333333,181.86707598902285L262.20703125,183.49022491648793L268.03385416666663,202.15622313134375L273.86067708333337,209.42940003052354L279.6875,217.81258547957987L285.51432291666663,221.1153758531436L291.34114583333337,215.52929512504488L297.16796875,227.26175575330853L302.99479166666663,232.2189742634073L308.8216145833333,237.62802059110257L314.6484375,237.7715700007975L320.4752604166667,235.78048444166782L326.3020833333333,251.38627720344815L332.12890625,226.81309364084157L337.9557291666667,246.0373282134533L343.7825520833333,243.03210391011092L349.609375,257.5071374354884L355.4361979166667,260.5911061009392L361.2630208333333,258.9747072737664L367.08984375,262.3737452952191L372.9166666666667,243.4443706255406L378.7434895833333,258.37921771500265L384.5703125,247.89147149585187L390.3971354166667,267.3510915627703L396.2239583333333,275.1817389233038L402.05078125,272.7110286131502L407.8776041666667,291.40658532315865L413.7044270833333,277.38574368227273L419.53125,272.15849052462727L425.3580729166667,286.9333061138168L431.1848958333333,283.62588972598314L437.01171875,293.15488682873547L442.8385416666667,294.6960490993224L448.6653645833333,248.38171667698774L454.4921875,277.345518803224L460.3190104166667,294.5672151125036L466.1458333333333,284.0501656970009L471.97265625,296.59801495308056L477.7994791666667,310.25925802113494L483.62630208333337,316.45235249586403L489.453125,313.54360050335526L495.27994791666663,302.9556903527119L501.10677083333337,289.63701232150197L506.93359375,313.95525960763916L512.7604166666666,309.4745818390511L518.5872395833334,307.7376870838925L524.4140625,308.10056369332597L530.2408854166666,327.18964818678796L536.0677083333333,305.8498494657688L541.89453125,322.68074968876317L547.7213541666667,327.4596317745745L553.5481770833334,315.159647018183L559.375,293.6165436501615L565.2018229166666,318.9652841216885L571.0286458333333,327.276919528842L576.85546875,296.57006484037265L582.6822916666667,330.51175957359374L588.5091145833334,325.75620669219643L594.3359375,336.9604643136263L600.1627604166666,345.90617769327946L605.9895833333333,340.9134598849341L611.81640625,341.5026078214869L617.6432291666666,322.7810463756323L623.4700520833334,344.2570265829563L629.296875,335.44911583699286L635.1236979166666,331.60750713245943L640.9505208333334,323.26553712179884L646.77734375,315.91182366292924L652.6041666666666,337.3985136549454L658.4309895833334,348.28562889411114L664.2578125,353.68449901160784L670.0846354166666,331.60594470379874L675.9114583333334,339.2432976833079L681.73828125,346.84713248326443L687.5651041666666,348.86673747142777L693.3919270833334,350.95637857960537L699.21875,358.74475867068395L705.0455729166667,329.7208387828432L710.8723958333334,348.3168672553729L716.69921875,331.15417815791443L722.5260416666666,342.95357302576303L728.3528645833333,351.1985397040844L734.1796875,352.0300861930009L740.0065104166667,361.30067878507543L745.8333333333334,360.97478986589704L751.66015625,354.045956159709L757.4869791666666,319.29886774672195L763.3138020833333,350.6277324333787L769.140625,362.04232946026605L774.9674479166667,344.4362233642023L780.7942708333334,350.7575340026524L786.62109375,349.3866177373566L792.4479166666666,363.2053099583136L798.2747395833333,357.7556111260783L804.1015625,352.1853078638669L809.9283854166667,359.57033882662654L815.7552083333334,363.89507753471844L821.58203125,366.49025111622177L827.4088541666666,364.05103318963666L833.2356770833333,368.9182186629041L839.0625,366.4950871137553L844.8893229166667,361.2952970863553L850.7161458333334,358.69162716076244L856.54296875,363.0387772740796L862.3697916666666,346.21438461751677L868.1966145833333,360.42283896461595L874.0234375,355.0113660218194L879.8502604166666,360.28780121693853L885.6770833333334,363.00297799974214L891.50390625,360.64651007344946L897.3307291666666,365.1584223738173L903.1575520833334,348.02096318034455L908.984375,359.5262972305063L914.8111979166666,318.093111934606L920.6380208333334,355.6618482187623L926.46484375,366.0244022884872L932.2916666666666,368.2469104662887L938.1184895833334,372.3497485627304L943.9453125,371.9012236733688L949.7721354166666,371.17721223057015L955.5989583333334,373.11240681886557L961.42578125,323.4109451067634L967.2526041666667,355.9756461867364L973.0794270833334,364.2052732366137L978.90625,369.4125550073222L984.7330729166666,367.5834833436529L990.5598958333333,353.8699429545086L996.38671875,351.39407305559143L1002.2135416666667,368.4347369852476L1008.0403645833334,371.919937075465" fill="none"></path></g></g></g></g></g><g><g opacity="0.01677463762462139"><span fill="rgb(0, 0, 0)" stroke="none" stroke-width="1px">Alt + Scroll to Zoom</span></g></g></g><g transform="translate(41, 376)" clip-path="url(#clip_1)"><clipPath id="clip_1"><rect width="1048" height="23"></rect></clipPath><g><g><line x1="0" y1="0" x2="0" y2="5" style="visibility: inherit;" fill="rgb(0, 0, 0)" stroke="rgb(204, 204, 204)" stroke-width="1px"></line><line x1="116.53645833333333" y1="0" x2="116.53645833333333" y2="5" style="visibility: inherit;" fill="rgb(0, 0, 0)" stroke="rgb(204, 204, 204)" stroke-width="1px"></line><line x1="233.07291666666666" y1="0" x2="233.07291666666666" y2="5" style="visibility: inherit;" fill="rgb(0, 0, 0)" stroke="rgb(204, 204, 204)" stroke-width="1px"></line><line x1="349.609375" y1="0" x2="349.609375" y2="5" style="visibility: inherit;" fill="rgb(0, 0, 0)" stroke="rgb(204, 204, 204)" stroke-width="1px"></line><line x1="466.1458333333333" y1="0" x2="466.1458333333333" y2="5" style="visibility: inherit;" fill="rgb(0, 0, 0)" stroke="rgb(204, 204, 204)" stroke-width="1px"></line><line x1="582.6822916666667" y1="0" x2="582.6822916666667" y2="5" style="visibility: inherit;" fill="rgb(0, 0, 0)" stroke="rgb(204, 204, 204)" stroke-width="1px"></line><line x1="699.21875" y1="0" x2="699.21875" y2="5" style="visibility: inherit;" fill="rgb(0, 0, 0)" stroke="rgb(204, 204, 204)" stroke-width="1px"></line><line x1="815.7552083333334" y1="0" x2="815.7552083333334" y2="5" style="visibility: inherit;" fill="rgb(0, 0, 0)" stroke="rgb(204, 204, 204)" stroke-width="1px"></line><line x1="932.2916666666666" y1="0" x2="932.2916666666666" y2="5" style="visibility: inherit;" fill="rgb(0, 0, 0)" stroke="rgb(204, 204, 204)" stroke-width="1px"></line><line x1="1048.828125" y1="0" x2="1048.828125" y2="5" style="visibility: inherit;" fill="rgb(0, 0, 0)" stroke="rgb(204, 204, 204)" stroke-width="1px"></line></g><g transform="translate(0, 8)"><text style="text-anchor: middle; visibility: hidden; font-family: Roboto, sans-serif; font-size: 12px; font-weight: 200;" x="0" y="0" dx="0em" dy="0.95em" fill="rgb(255, 255, 255)" stroke="none" stroke-width="1px">-20</text><text style="text-anchor: middle; visibility: inherit; font-family: Roboto, sans-serif; font-size: 12px; font-weight: 200;" x="116.53645833333333" y="0" dx="0em" dy="0.95em" fill="rgb(255, 255, 255)" stroke="none" stroke-width="1px">0</text><text style="text-anchor: middle; visibility: inherit; font-family: Roboto, sans-serif; font-size: 12px; font-weight: 200;" x="233.07291666666666" y="0" dx="0em" dy="0.95em" fill="rgb(255, 255, 255)" stroke="none" stroke-width="1px">20</text><text style="text-anchor: middle; visibility: inherit; font-family: Roboto, sans-serif; font-size: 12px; font-weight: 200;" x="349.609375" y="0" dx="0em" dy="0.95em" fill="rgb(255, 255, 255)" stroke="none" stroke-width="1px">40</text><text style="text-anchor: middle; visibility: inherit; font-family: Roboto, sans-serif; font-size: 12px; font-weight: 200;" x="466.1458333333333" y="0" dx="0em" dy="0.95em" fill="rgb(255, 255, 255)" stroke="none" stroke-width="1px">60</text><text style="text-anchor: middle; visibility: inherit; font-family: Roboto, sans-serif; font-size: 12px; font-weight: 200;" x="582.6822916666667" y="0" dx="0em" dy="0.95em" fill="rgb(255, 255, 255)" stroke="none" stroke-width="1px">80</text><text style="text-anchor: middle; visibility: inherit; font-family: Roboto, sans-serif; font-size: 12px; font-weight: 200;" x="699.21875" y="0" dx="0em" dy="0.95em" fill="rgb(255, 255, 255)" stroke="none" stroke-width="1px">100</text><text style="text-anchor: middle; visibility: inherit; font-family: Roboto, sans-serif; font-size: 12px; font-weight: 200;" x="815.7552083333334" y="0" dx="0em" dy="0.95em" fill="rgb(255, 255, 255)" stroke="none" stroke-width="1px">120</text><text style="text-anchor: middle; visibility: inherit; font-family: Roboto, sans-serif; font-size: 12px; font-weight: 200;" x="932.2916666666666" y="0" dx="0em" dy="0.95em" fill="rgb(255, 255, 255)" stroke="none" stroke-width="1px">140</text><text style="text-anchor: middle; visibility: hidden; font-family: Roboto, sans-serif; font-size: 12px; font-weight: 200;" x="1048.828125" y="0" dx="0em" dy="0.95em" fill="rgb(255, 255, 255)" stroke="none" stroke-width="1px">160</text></g><line x1="0" y1="0" x2="1048.828125" y2="0" fill="rgb(0, 0, 0)" stroke="rgb(204, 204, 204)" stroke-width="1px"></line></g></g></g></g></svg>