<svg viewBox="0 0 1090 400" xmlns="http://www.w3.org/2000/svg"><g><g><g><g><g><line x1="50" y1="376.984375" x2="45" y2="376.984375" style="visibility: inherit;" fill="rgb(0, 0, 0)" stroke="rgb(204, 204, 204)" stroke-width="1px"></line><line x1="50" y1="335.09722222222223" x2="45" y2="335.09722222222223" style="visibility: inherit;" fill="rgb(0, 0, 0)" stroke="rgb(204, 204, 204)" stroke-width="1px"></line><line x1="50" y1="293.2100694444445" x2="45" y2="293.2100694444445" style="visibility: inherit;" fill="rgb(0, 0, 0)" stroke="rgb(204, 204, 204)" stroke-width="1px"></line><line x1="50" y1="251.32291666666669" x2="45" y2="251.32291666666669" style="visibility: inherit;" fill="rgb(0, 0, 0)" stroke="rgb(204, 204, 204)" stroke-width="1px"></line><line x1="50" y1="209.43576388888886" x2="45" y2="209.43576388888886" style="visibility: inherit;" fill="rgb(0, 0, 0)" stroke="rgb(204, 204, 204)" stroke-width="1px"></line><line x1="50" y1="167.54861111111114" x2="45" y2="167.54861111111114" style="visibility: inherit;" fill="rgb(0, 0, 0)" stroke="rgb(204, 204, 204)" stroke-width="1px"></line><line x1="50" y1="125.66145833333334" x2="45" y2="125.66145833333334" style="visibility: inherit;" fill="rgb(0, 0, 0)" stroke="rgb(204, 204, 204)" stroke-width="1px"></line><line x1="50" y1="83.77430555555563" x2="45" y2="83.77430555555563" style="visibility: inherit;" fill="rgb(0, 0, 0)" stroke="rgb(204, 204, 204)" stroke-width="1px"></line><line x1="50" y1="41.8871527777778" x2="45" y2="41.8871527777778" style="visibility: inherit;" fill="rgb(0, 0, 0)" stroke="rgb(204, 204, 204)" stroke-width="1px"></line><line x1="50" y1="0" x2="45" y2="0" style="visibility: inherit;" fill="rgb(0, 0, 0)" stroke="rgb(204, 204, 204)" stroke-width="1px"></line></g><g transform="translate(40, 0)"><text style="text-anchor: end; visibility: hidden; font-family: Roboto, sans-serif; font-size: 12px; font-weight: 200;" x="0" y="376.984375" dx="0em" dy="0.3em" fill="rgb(255, 255, 255)" stroke="none" stroke-width="1px">0.6</text><text style="text-anchor: end; visibility: inherit; font-family: Roboto, sans-serif; font-size: 12px; font-weight: 200;" x="0" y="335.09722222222223" dx="0em" dy="0.3em" fill="rgb(255, 255, 255)" stroke="none" stroke-width="1px">0.65</text><text style="text-anchor: end; visibility: inherit; font-family: Roboto, sans-serif; font-size: 12px; font-weight: 200;" x="0" y="293.2100694444445" dx="0em" dy="0.3em" fill="rgb(255, 255, 255)" stroke="none" stroke-width="1px">0.7</text><text style="text-anchor: end; visibility: inherit; font-family: Roboto, sans-serif; font-size: 12px; font-weight: 200;" x="0" y="251.32291666666669" dx="0em" dy="0.3em" fill="rgb(255, 255, 255)" stroke="none" stroke-width="1px">0.75</text><text style="text-anchor: end; visibility: inherit; font-family: Roboto, sans-serif; font-size: 12px; font-weight: 200;" x="0" y="209.43576388888886" dx="0em" dy="0.3em" fill="rgb(255, 255, 255)" stroke="none" stroke-width="1px">0.8</text><text style="text-anchor: end; visibility: inherit; font-family: Roboto, sans-serif; font-size: 12px; font-weight: 200;" x="0" y="167.54861111111114" dx="0em" dy="0.3em" fill="rgb(255, 255, 255)" stroke="none" stroke-width="1px">0.85</text><text style="text-anchor: end; visibility: inherit; font-family: Roboto, sans-serif; font-size: 12px; font-weight: 200;" x="0" y="125.66145833333334" dx="0em" dy="0.3em" fill="rgb(255, 255, 255)" stroke="none" stroke-width="1px">0.9</text><text style="text-anchor: end; visibility: inherit; font-family: Roboto, sans-serif; font-size: 12px; font-weight: 200;" x="0" y="83.77430555555563" dx="0em" dy="0.3em" fill="rgb(255, 255, 255)" stroke="none" stroke-width="1px">0.95</text><text style="text-anchor: end; visibility: inherit; font-family: Roboto, sans-serif; font-size: 12px; font-weight: 200;" x="0" y="41.8871527777778" dx="0em" dy="0.3em" fill="rgb(255, 255, 255)" stroke="none" stroke-width="1px">1</text><text style="text-anchor: end; visibility: hidden; font-family: Roboto, sans-serif; font-size: 12px; font-weight: 200;" x="0" y="0" dx="0em" dy="0.3em" fill="rgb(255, 255, 255)" stroke="none" stroke-width="1px">1.05</text></g><line x1="50" y1="0" x2="50" y2="376.984375" fill="rgb(0, 0, 0)" stroke="rgb(204, 204, 204)" stroke-width="1px"></line></g></g><g transform="translate(50, 0)" clip-path="url(#clip_0)"><clipPath id="clip_0"><rect width="1040" height="376"></rect></clipPath><g><g><g><line x1="0" y1="0" x2="0" y2="376.984375" fill="rgb(0, 0, 0)" stroke="rgb(189, 189, 189)" stroke-width="1px" opacity="0.25"></line><line x1="115.55555555555554" y1="0" x2="115.55555555555554" y2="376.984375" fill="rgb(0, 0, 0)" stroke="rgb(189, 189, 189)" stroke-width="1px" opacity="0.25"></line><line x1="231.1111111111111" y1="0" x2="231.1111111111111" y2="376.984375" fill="rgb(0, 0, 0)" stroke="rgb(189, 189, 189)" stroke-width="1px" opacity="0.25"></line><line x1="346.66666666666663" y1="0" x2="346.66666666666663" y2="376.984375" fill="rgb(0, 0, 0)" stroke="rgb(189, 189, 189)" stroke-width="1px" opacity="0.25"></line><line x1="462.2222222222222" y1="0" x2="462.2222222222222" y2="376.984375" fill="rgb(0, 0, 0)" stroke="rgb(189, 189, 189)" stroke-width="1px" opacity="0.25"></line><line x1="577.7777777777778" y1="0" x2="577.7777777777778" y2="376.984375" fill="rgb(0, 0, 0)" stroke="rgb(189, 189, 189)" stroke-width="1px" opacity="0.25"></line><line x1="693.3333333333333" y1="0" x2="693.3333333333333" y2="376.984375" fill="rgb(0, 0, 0)" stroke="rgb(189, 189, 189)" stroke-width="1px" opacity="0.25"></line><line x1="808.8888888888889" y1="0" x2="808.8888888888889" y2="376.984375" fill="rgb(0, 0, 0)" stroke="rgb(189, 189, 189)" stroke-width="1px" opacity="0.25"></line><line x1="924.4444444444443" y1="0" x2="924.4444444444443" y2="376.984375" fill="rgb(0, 0, 0)" stroke="rgb(189, 189, 189)" stroke-width="1px" opacity="0.25"></line><line x1="1040" y1="0" x2="1040" y2="376.984375" fill="rgb(0, 0, 0)" stroke="rgb(189, 189, 189)" stroke-width="1px" opacity="0.25"></line></g><g><line x1="0" y1="376.984375" x2="1040" y2="376.984375" fill="rgb(0, 0, 0)" stroke="rgb(189, 189, 189)" stroke-width="1px" opacity="0.25"></line><line x1="0" y1="335.09722222222223" x2="1040" y2="335.09722222222223" fill="rgb(0, 0, 0)" stroke="rgb(189, 189, 189)" stroke-width="1px" opacity="0.25"></line><line x1="0" y1="293.2100694444445" x2="1040" y2="293.2100694444445" fill="rgb(0, 0, 0)" stroke="rgb(189, 189, 189)" stroke-width="1px" opacity="0.25"></line><line x1="0" y1="251.32291666666669" x2="1040" y2="251.32291666666669" fill="rgb(0, 0, 0)" stroke="rgb(189, 189, 189)" stroke-width="1px" opacity="0.25"></line><line x1="0" y1="209.43576388888886" x2="1040" y2="209.43576388888886" fill="rgb(0, 0, 0)" stroke="rgb(189, 189, 189)" stroke-width="1px" opacity="0.25"></line><line x1="0" y1="167.54861111111114" x2="1040" y2="167.54861111111114" fill="rgb(0, 0, 0)" stroke="rgb(189, 189, 189)" stroke-width="1px" opacity="0.25"></line><line x1="0" y1="125.66145833333334" x2="1040" y2="125.66145833333334" fill="rgb(0, 0, 0)" stroke="rgb(189, 189, 189)" stroke-width="1px" opacity="0.25"></line><line x1="0" y1="83.77430555555563" x2="1040" y2="83.77430555555563" fill="rgb(0, 0, 0)" stroke="rgb(189, 189, 189)" stroke-width="1px" opacity="0.25"></line><line x1="0" y1="41.8871527777778" x2="1040" y2="41.8871527777778" fill="rgb(0, 0, 0)" stroke="rgb(189, 189, 189)" stroke-width="1px" opacity="0.25"></line><line x1="0" y1="0" x2="1040" y2="0" fill="rgb(0, 0, 0)" stroke="rgb(189, 189, 189)" stroke-width="1px" opacity="0.25"></line></g></g></g><g><g><line x1="0" y1="879.6302083333333" x2="1040" y2="879.6302083333333" fill="rgb(0, 0, 0)" stroke="rgb(153, 153, 153)" stroke-width="1.5px"></line></g></g><g><g><line x1="115.55555555555554" y1="0" x2="115.55555555555554" y2="376.984375" fill="rgb(0, 0, 0)" stroke="rgb(153, 153, 153)" stroke-width="1.5px"></line></g></g><g><g><g><g><g><path style="fill: none;" stroke="rgb(187, 187, 187)" stroke-width="2px" d="M132.88888888888889,397.77976360959326L138.66666666666666,362.75148453090543L144.44444444444446,346.05007150342624L150.2222222222222,391.22224300717335L156,398.0096679254923L161.77777777777777,353.5074800911126L167.55555555555557,312.5837811501216L173.33333333333331,298.8967200706568L179.11111111111111,281.8057993119591L184.88888888888889,264.0571866828017L190.66666666666666,251.2477818377777L196.44444444444443,252.4638858589006L202.22222222222223,246.0782653029788L208,241.4575867750539L213.77777777777777,241.25449411058108L219.55555555555554,234.4144853885043L225.33333333333334,232.87939378431642L231.1111111111111,228.59942258422726L236.88888888888889,223.85809114310544L242.66666666666666,213.11003456139497L248.44444444444446,222.46780031887957L254.2222222222222,219.19126896618013L260,218.4108364342752L265.77777777777777,213.39821634688133L271.5555555555556,213.1567786154549L277.3333333333333,207.47965535527766L283.1111111111111,210.9887176006492L288.8888888888889,208.15462427955282L294.6666666666667,201.31706221495125L300.4444444444444,194.44839585346958L306.22222222222223,191.51267457617809L312,191.72706568826325L317.7777777777778,190.86777846095896L323.55555555555554,188.77157505062777L329.3333333333333,186.72352748820188L335.11111111111114,181.74064772633608L340.8888888888889,175.9847905337169L346.66666666666663,174.90225278975626L352.44444444444446,172.4745027128288L358.22222222222223,175.36463305077197L364,178.6793622964676L369.77777777777777,171.9746390784202L375.55555555555554,174.27438934784087L381.3333333333333,172.88811017039103L387.11111111111114,166.5240839860163L392.88888888888886,163.69357018415224L398.6666666666667,161.7976655426446L404.44444444444446,160.26496998362603L410.22222222222223,157.9622779920867L416,155.39518450144837L421.77777777777777,164.52429298858485L427.55555555555554,160.51787179506633L433.33333333333337,153.96483505727014L439.1111111111111,162.67818141341445L444.88888888888886,159.60780121037794L450.6666666666667,151.6405652762081L456.44444444444446,147.45295287688975L462.2222222222222,150.4726640884637L468,145.36915748146527L473.77777777777777,142.50462990432715L479.5555555555556,140.39074061057144L485.3333333333333,134.57805026516027L491.1111111111111,143.1428752955479L496.8888888888889,142.5519352489057L502.6666666666667,135.87476704816078L508.4444444444444,134.63459546662074L514.2222222222223,139.22519478180024L520,131.90291895058562L525.7777777777777,132.0539102210146L531.5555555555555,127.79772460117528L537.3333333333334,125.24401322927176L543.1111111111112,123.71178640612948L548.8888888888889,129.11503451165288L554.6666666666666,130.5787559447159L560.4444444444445,123.15860078783318L566.2222222222222,125.62184102764617L572,127.29736155859497L577.7777777777778,125.5365445382574L583.5555555555555,119.73810119648516L589.3333333333334,113.49290585251498L595.1111111111111,112.70951434545162L600.8888888888888,109.07817735483388L606.6666666666667,115.7905123117178L612.4444444444445,113.8904818605614L618.2222222222222,106.0327266163369L624,105.66485385189895L629.7777777777777,107.81508678467013L635.5555555555557,110.09314842633967L641.3333333333334,110.86723627680742L647.1111111111111,106.98490860499129L652.8888888888889,104.06276286736767L658.6666666666666,105.47077751117335L664.4444444444443,106.5131626845177L670.2222222222223,107.13859378852435L676,105.93320140773844L681.7777777777778,103.43173854901602L687.5555555555555,102.91876274243855L693.3333333333333,100.43759705411911L699.1111111111112,101.7150269800343L704.8888888888889,105.64278702196317L710.6666666666666,108.78976856871544L716.4444444444445,100.20616930232242L722.2222222222222,98.21729185551544L728,94.85058518305839L733.7777777777778,91.44748652345525L739.5555555555555,89.6032037147543L745.3333333333334,98.17809670238334L751.1111111111111,97.79077381714693L756.8888888888888,100.52210578532389L762.6666666666666,92.2818459329687L768.4444444444445,96.2288271728101L774.2222222222223,90.10105151293338L780,88.9929390688531L785.7777777777777,85.95709503762022L791.5555555555555,89.27269452257217L797.3333333333334,90.07655594447539L803.1111111111112,83.84113582408658L808.8888888888889,82.27326395622634L814.6666666666666,77.97366236206939L820.4444444444445,79.34552901354988L826.2222222222222,77.20492330511945L832,79.2794383535019L837.7777777777778,81.70964565159937L843.5555555555555,81.38954260020695L849.3333333333334,81.3950571564324L855.1111111111111,81.20078950310675L860.8888888888888,82.26970720682824L866.6666666666667,84.09653612477825L872.4444444444445,79.0676256632005L878.2222222222222,80.79223251582353L884,80.8390947187414L889.7777777777777,81.45994120167508L895.5555555555557,85.9816530864711L901.3333333333334,99.95679393338813L907.1111111111111,97.27734111256L912.8888888888889,95.47209303300201L918.6666666666666,87.67118723838573L924.4444444444443,81.21241633136508L930.2222222222223,77.53475014756451L936,75.3281504372842L941.7777777777778,74.00419061111603L947.5555555555555,81.9033754796086L953.3333333333333,89.60659212667207L959.1111111111112,85.9301141248386L964.8888888888889,81.15567437189264L970.6666666666666,77.50070497188105L976.4444444444445,76.88835440171303L982.2222222222222,80.867724441709L988,77.92066417495388L993.7777777777778,77.14032992355673L999.5555555555555,73.70842364675066" fill="none"></path></g><g><path style="fill: none;" stroke="rgb(0, 153, 136)" stroke-width="2px" d="M138.66666666666666,386.4860398828322L144.44444444444446,353.19415551077L150.2222222222222,344.5577688137099L156,371.18391740477784L161.77777777777777,353.6383431106247L167.55555555555557,322.94899990797904L173.33333333333331,297.763649763087L179.11111111111111,280.23589251433657L184.88888888888889,263.16554253243413L190.66666666666666,252.09723439957062L196.44444444444443,251.3920029697072L202.22222222222223,246.47284528017613L208,237.3467917697955L213.77777777777777,229.20453632707935L219.55555555555554,224.9618946903583L225.33333333333334,225.92366416537857L231.1111111111111,221.80804136955632L236.88888888888889,215.48585532149363L242.66666666666666,209.76617201573174L248.44444444444446,200.6045087526624L254.2222222222222,208.1973110358862L260,211.91325753963054L265.77777777777777,205.54804001774934L271.5555555555556,201.48194303856656L277.3333333333333,194.6955044654193L283.1111111111111,191.75972737196642L288.8888888888889,190.8873753643313L294.6666666666667,185.5726365994967L300.4444444444444,179.86463463592906L306.22222222222223,175.9458926504277L312,172.95250428864588L317.7777777777778,171.8480086397075L323.55555555555554,164.41816017210903L329.3333333333333,167.56712181123035L335.11111111111114,164.7145456470856L340.8888888888889,164.8306214821253L346.66666666666663,159.5655846880185L352.44444444444446,154.67772927993926L358.22222222222223,154.16538669884613L364,150.54849677303594L369.77777777777777,154.05882376000184L375.55555555555554,152.8061414782976L381.3333333333333,153.58578905580688L387.11111111111114,148.521298951005L392.88888888888886,143.11162832337976L398.6666666666667,139.71764365655437L404.44444444444446,132.14899417863606L410.22222222222223,132.300343551376L416,134.3175828689203L421.77777777777777,130.88476152340073L427.55555555555554,129.71418243121732L433.33333333333337,124.66505459380939L439.1111111111111,121.24042511724366L444.88888888888886,133.2632845830181L450.6666666666667,132.8701296004741L456.44444444444446,126.01528783094722L462.2222222222222,124.42154162431191L468,120.64975049130776L473.77777777777777,113.20017581104817L479.5555555555556,106.35947441145855L485.3333333333333,104.08267509872105L491.1111111111111,106.32244446834562L496.8888888888889,110.67940591285341L502.6666666666667,105.09398295636798L508.4444444444444,103.32338022566661L514.2222222222223,103.49589097972807L520,102.31513094291742L525.7777777777777,94.6913415868885L531.5555555555555,97.67452456516197L537.3333333333334,94.96947167973362L543.1111111111112,90.33334012574349L548.8888888888889,92.24420025280295L554.6666666666666,102.97339080835754L560.4444444444445,98.19818552241613L566.2222222222222,93.30786443677418L572,100.10452855500371L577.7777777777778,92.327684148719L583.5555555555555,90.97104190827278L589.3333333333334,84.72358607972187L595.1111111111111,78.80173237821838L600.8888888888888,76.68106893685959L606.6666666666667,75.21109448498325L612.4444444444445,79.86136849167126L618.2222222222222,75.53862317468027L624,76.00748987733509L629.7777777777777,77.32610590434916L635.5555555555557,80.53764618210775L641.3333333333334,84.73673874666633L647.1111111111111,81.03239827952325L652.8888888888889,75.40152142903132L658.6666666666666,69.40504827012508L664.4444444444443,73.9079959777918L670.2222222222223,72.31237831706032L676,70.76225858608748L681.7777777777778,68.5479002849054L687.5555555555555,66.18198929877492L693.3333333333333,61.650554690833076L699.1111111111112,69.40348212051232L704.8888888888889,66.89291478720014L710.6666666666666,72.3019077211555L716.4444444444445,71.39811945984383L722.2222222222222,67.7439385134423L728,65.45264175207086L733.7777777777778,60.62019702827669L739.5555555555555,58.511055715595184L745.3333333333334,59.22137474529816L751.1111111111111,69.42781702949995L756.8888888888888,66.6111511520012L762.6666666666666,60.87075579734752L768.4444444444445,62.71180677854283L774.2222222222223,62.285180420835395L780,62.374963283567766L785.7777777777777,58.625407656879084L791.5555555555555,57.610546673348146L797.3333333333334,59.07624206742281L803.1111111111112,57.782259126143806L808.8888888888889,55.77099696889411L814.6666666666666,53.67512595941888L820.4444444444445,53.01033251491682L826.2222222222222,51.08021947514185L832,50.86065946316751L837.7777777777778,52.507150886233845L843.5555555555555,54.38415945519905L849.3333333333334,53.23817622532399L855.1111111111111,57.588903997560074L860.8888888888888,55.90195437557024L866.6666666666667,57.31015526392636L872.4444444444445,56.22866607639338L878.2222222222222,54.74005294551335L884,55.22993974976341L889.7777777777777,53.05410707399807L895.5555555555557,57.18209792617302L901.3333333333334,56.546984447863395L907.1111111111111,68.66290246939921L912.8888888888889,65.16430050728482L918.6666666666666,58.96532943174572L924.4444444444443,54.99897630259595L930.2222222222223,50.89033109162037L936,48.721508545626605L941.7777777777778,47.51902318491173L947.5555555555555,46.45175331777509L953.3333333333333,59.69145216214359L959.1111111111112,59.18868118839747L964.8888888888889,56.56545610948112L970.6666666666666,53.06509136823377L976.4444444444445,51.65640985154979L982.2222222222222,54.8616167430446L988,57.328095915710165L993.7777777777778,53.67087751561784L999.5555555555555,50.389836400025104" fill="none"></path></g></g></g></g><g opacity="0.20000000298023224"><g><g><g><path style="fill: none;" stroke="rgb(187, 187, 187)" stroke-width="2px" d="M127.1111111111111,416.3029448659056L132.88888888888889,346.655720492204L138.66666666666666,317.0185633657707L144.44444444444446,322.9460047777328L150.2222222222222,455.81917101227566L156,407.9057986156808L161.77777777777777,287.87539714036717L167.55555555555557,251.81685763431918L173.33333333333331,278.49026908808287L179.11111111111111,256.26242620994645L184.88888888888889,237.49222003875505L190.66666666666666,232.05876952782273L196.44444444444443,254.2866124059591L202.22222222222223,236.50433810345L208,234.52852429946262L213.77777777777777,240.94990667907726L219.55555555555554,224.15551431187325L225.33333333333334,230.57689669148792L231.1111111111111,222.17970050788588L236.88888888888889,216.74624999695354L242.66666666666666,196.9881618904571L248.44444444444446,236.50433810345L254.2222222222222,214.27649522531362L260,217.2401909646061L265.77777777777777,205.87929904171162L271.5555555555556,212.7946223889788L277.3333333333333,198.96397569444446L283.1111111111111,216.25230902930102L288.8888888888889,203.90348523772425L294.6666666666667,191.06072047849497L300.4444444444444,184.14539713122778L306.22222222222223,187.10909287052024L312,192.04865234717727L317.7777777777778,189.57884764216013L323.55555555555554,185.62726996756263L329.3333333333333,183.65145616357526L335.11111111111114,174.26632811129093L340.8888888888889,167.35100476402374L346.66666666666663,173.27844617598586L352.44444444444446,168.83287760035861L358.22222222222223,179.69982855560053L364,183.65145616357526L369.77777777777777,161.91755425309142L375.55555555555554,177.72401475161314L381.3333333333333,170.80869140434595L387.11111111111114,156.97804470981163L392.88888888888886,159.4477994814515L398.6666666666667,158.95380858042174L404.44444444444446,157.9659266451167L410.22222222222223,154.5082400047945L416,151.54454426550203L421.77777777777777,178.21795571926566L427.55555555555554,154.5082400047945L433.33333333333337,144.13527995058232L439.1111111111111,175.7482009476258L444.88888888888886,155.00223090582423L450.6666666666667,139.68971137495507L456.44444444444446,141.17153427791266L462.2222222222222,155.00223090582423L468,137.71389757096767L473.77777777777777,138.20783853862025L479.5555555555556,137.2199066699379L485.3333333333333,125.85901474704346L491.1111111111111,155.9901128411293L496.8888888888889,141.6655251789424L502.6666666666667,125.85901474704346L508.4444444444444,132.77433809431065L514.2222222222223,146.1110937545697L520,120.91950520376368L525.7777777777777,132.28039712665813L531.5555555555555,121.4134461714162L537.3333333333334,121.4134461714162L543.1111111111112,121.4134461714162L548.8888888888889,137.2199066699379L554.6666666666666,132.77433809431065L560.4444444444445,112.0283680525091L566.2222222222222,129.31670138736567L572,129.8106423550182L577.7777777777778,122.89531900775101L583.5555555555555,111.04043618382681L589.3333333333334,104.12511283655962L595.1111111111111,111.53442708485657L600.8888888888888,103.6311718689071L606.6666666666667,125.85901474704346L612.4444444444445,111.04043618382681L618.2222222222222,94.24609375000004L624,105.11304470524196L629.7777777777777,111.04043618382681L635.5555555555557,113.51024088884397L641.3333333333334,112.0283680525091L647.1111111111111,101.16141709726718L652.8888888888889,99.67954426093236L658.6666666666666,107.58279947688183L664.4444444444443,108.07674044453437L670.2222222222223,108.07674044453437L676,104.12511283655962L681.7777777777778,99.67954426093236L687.5555555555555,102.14929903257229L693.3333333333333,96.71584852163991L699.1111111111112,103.6311718689071L704.8888888888889,111.53442708485657L710.6666666666666,113.51024088884397L716.4444444444445,87.33077040273287L722.2222222222222,95.2339756853051L728,89.80052517437274L733.7777777777778,86.34283853405053L739.5555555555555,86.83677950170305L745.3333333333334,111.04043618382681L751.1111111111111,97.20978948929245L756.8888888888888,104.61910373758938L762.6666666666666,79.92145615443592L768.4444444444445,102.14929903257229L774.2222222222223,80.90938802311821L780,87.33077040273287L785.7777777777777,81.40332899077073L791.5555555555555,94.24609375000004L797.3333333333334,91.28234807733037L803.1111111111112,74.48800564350356L808.8888888888889,79.92145615443592L814.6666666666666,71.52425997083387L820.4444444444445,81.40332899077073L826.2222222222222,73.9940147424738L832,82.39121092607579L837.7777777777778,85.35495659874547L843.5555555555555,80.90938802311821L849.3333333333334,81.40332899077073L855.1111111111111,80.90938802311821L860.8888888888888,83.87308376241066L866.6666666666667,86.83677950170305L872.4444444444445,71.52425997083387L878.2222222222222,83.37914279475812L884,80.90938802311821L889.7777777777777,82.39121092607579L895.5555555555557,92.76422091366518L901.3333333333334,120.91950520376368L907.1111111111111,93.2581618813177L912.8888888888889,92.76422091366518L918.6666666666666,75.96982854646117L924.4444444444443,71.52425997083387L930.2222222222223,72.01825087186367L936,72.01825087186367L941.7777777777778,72.01825087186367L947.5555555555555,93.75215278234747L953.3333333333333,101.16141709726718L959.1111111111112,80.41539712208845L964.8888888888889,73.9940147424738L970.6666666666666,72.01825087186367L976.4444444444445,75.96982854646117L982.2222222222222,86.83677950170305L988,73.50007377482126L993.7777777777778,75.96982854646117L999.5555555555555,68.56056423154146" fill="none"></path></g><g><path style="fill: none;" stroke="rgb(0, 153, 136)" stroke-width="2px" d="M121.33333333333333,499.65740559229414L127.1111111111111,361.103793396304L132.88888888888889,406.0534700536066L138.66666666666666,323.93388671303785L144.44444444444446,307.13949434583384L150.2222222222222,332.2075976547268L156,410.00509766158126L161.77777777777777,327.7620290790995L167.55555555555557,277.37890191086467L173.33333333333331,260.21405381792124L179.11111111111111,254.03964192213286L184.88888888888889,237.61575521404546L190.66666666666666,235.51645616814494L196.44444444444443,250.33498479798436L202.22222222222223,239.09757811700302L208,223.66157334422073L213.77777777777777,216.99322048077983L219.55555555555554,218.5985785590278L225.33333333333334,227.3662304683692L231.1111111111111,215.6348328863581L236.88888888888889,206.00278428362478L242.66666666666666,201.18675998225808L248.44444444444446,186.86212238669395L254.2222222222222,219.58646049433284L260,217.48716144843232L265.77777777777777,196.00023002177477L271.5555555555556,195.38280381220915L277.3333333333333,184.51585285696717L283.1111111111111,187.35606335434647L288.8888888888889,189.57884764216013L294.6666666666667,177.6005295097L300.4444444444444,171.30263237199853L306.22222222222223,170.0677799528672L312,168.46242187461922L317.7777777777778,170.19126519478033L323.55555555555554,153.27338758566313L329.3333333333333,172.29056424068082L335.11111111111114,160.4356814167566L340.8888888888889,165.00473523429702L346.66666666666663,151.66802950741518L352.44444444444446,147.345946173701L358.22222222222223,153.3968728275763L364,145.12316188588738L369.77777777777777,159.3243142395384L375.55555555555554,150.92711805593638L381.3333333333333,154.755260421998L387.11111111111114,140.9245637940864L392.88888888888886,134.99712238212427L398.6666666666667,134.62666665638488L404.44444444444446,120.79601996185053L410.22222222222223,132.52736761048436L416,137.34344184522828L421.77777777777777,125.73552950513032L427.55555555555554,127.95831379294395L433.33333333333337,117.09136283770204L439.1111111111111,116.10348090239698L444.88888888888886,151.2975737816758L450.6666666666667,132.28039712665813L456.44444444444446,115.73302517665759L462.2222222222222,122.0309223143591L468,114.99206379180154L473.77777777777777,102.02581379065914L479.5555555555556,96.09842231207425L485.3333333333333,100.66747612961466L491.1111111111111,109.68209852278237L496.8888888888889,117.21484807961518L502.6666666666667,96.71584852163991L508.4444444444444,100.66747612961466L514.2222222222223,103.75465711082025L520,100.54399088770155L525.7777777777777,83.25565755284498L531.5555555555555,102.14929903257229L537.3333333333334,90.91189235159094L543.1111111111112,83.37914279475812L548.8888888888889,95.11049044339195L554.6666666666666,119.06717664168943L560.4444444444445,91.03537759350408L566.2222222222222,85.97238280831114L572,110.29952473234799L577.7777777777778,80.66241753929192L583.5555555555555,88.93607854760359L589.3333333333334,75.35240233689551L595.1111111111111,69.91895182596315L600.8888888888888,73.50007377482126L606.6666666666667,73.00613280716874L612.4444444444445,86.83677950170305L618.2222222222222,69.054505199194L624,76.71078993131718L629.7777777777777,79.30402994487025L635.5555555555557,85.35495659874547L641.3333333333334,91.03537759350408L647.1111111111111,75.47588757880861L652.8888888888889,66.95520615329346L658.6666666666666,60.41033853176571L664.4444444444443,80.66241753929192L670.2222222222223,69.91895182596315L676,68.43707898962833L681.7777777777778,65.22636283313236L687.5555555555555,62.63312281957934L693.3333333333333,54.85340277892025L699.1111111111112,81.03287326503136L704.8888888888889,63.12706378723187L710.6666666666666,80.41539712208845L716.4444444444445,70.04243706787629L722.2222222222222,62.26266709383996L728,62.01569661001367L733.7777777777778,53.37152994258538L739.5555555555555,55.347343746572776L745.3333333333334,60.286853289852566L751.1111111111111,84.73748045580257L756.8888888888888,62.38615233575306L762.6666666666666,52.260162765367184L768.4444444444445,65.47338325033589L774.2222222222223,61.64524088427429L780,62.5096375776662L785.7777777777777,53.001074216846L791.5555555555555,56.08825519805155L797.3333333333334,61.27478515853486L803.1111111111112,55.8412847142253L808.8888888888889,52.75410373301972L814.6666666666666,50.53131944520608L820.4444444444445,52.01314234816367L826.2222222222222,48.18504991547931L832,50.53131944520608L837.7777777777778,54.97688802083335L843.5555555555555,57.19967230864698L849.3333333333334,51.51920138051114L855.1111111111111,64.11499565591416L860.8888888888888,53.37152994258538L866.6666666666667,59.422456596460655L872.4444444444445,54.60643229509396L878.2222222222222,52.50713324919347L884,55.96476995613845L889.7777777777777,49.79035806035004L895.5555555555557,63.37408420443539L901.3333333333334,55.59431423039902L907.1111111111111,86.83677950170305L912.8888888888889,59.91639756411318L918.6666666666666,49.666872818436936L924.4444444444443,49.049446608871264L930.2222222222223,44.7273632751571L936,45.46827472663591L941.7777777777778,45.715295143839434L947.5555555555555,44.85084851707024L953.3333333333333,79.55100042869648L959.1111111111112,58.434524727778324L964.8888888888889,52.630618491106574L970.6666666666666,47.81454425636269L976.4444444444445,49.54338757652379L982.2222222222222,59.669427080286894L988,61.027814674708615L993.7777777777778,48.18504991547931L999.5555555555555,45.46827472663591" fill="none"></path></g></g></g></g></g></g><g transform="translate(50, 376)" clip-path="url(#clip_1)"><clipPath id="clip_1"><rect width="1040" height="23"></rect></clipPath><g><g><line x1="0" y1="0" x2="0" y2="5" style="visibility: inherit;" fill="rgb(0, 0, 0)" stroke="rgb(204, 204, 204)" stroke-width="1px"></line><line x1="115.55555555555554" y1="0" x2="115.55555555555554" y2="5" style="visibility: inherit;" fill="rgb(0, 0, 0)" stroke="rgb(204, 204, 204)" stroke-width="1px"></line><line x1="231.1111111111111" y1="0" x2="231.1111111111111" y2="5" style="visibility: inherit;" fill="rgb(0, 0, 0)" stroke="rgb(204, 204, 204)" stroke-width="1px"></line><line x1="346.66666666666663" y1="0" x2="346.66666666666663" y2="5" style="visibility: inherit;" fill="rgb(0, 0, 0)" stroke="rgb(204, 204, 204)" stroke-width="1px"></line><line x1="462.2222222222222" y1="0" x2="462.2222222222222" y2="5" style="visibility: inherit;" fill="rgb(0, 0, 0)" stroke="rgb(204, 204, 204)" stroke-width="1px"></line><line x1="577.7777777777778" y1="0" x2="577.7777777777778" y2="5" style="visibility: inherit;" fill="rgb(0, 0, 0)" stroke="rgb(204, 204, 204)" stroke-width="1px"></line><line x1="693.3333333333333" y1="0" x2="693.3333333333333" y2="5" style="visibility: inherit;" fill="rgb(0, 0, 0)" stroke="rgb(204, 204, 204)" stroke-width="1px"></line><line x1="808.8888888888889" y1="0" x2="808.8888888888889" y2="5" style="visibility: inherit;" fill="rgb(0, 0, 0)" stroke="rgb(204, 204, 204)" stroke-width="1px"></line><line x1="924.4444444444443" y1="0" x2="924.4444444444443" y2="5" style="visibility: inherit;" fill="rgb(0, 0, 0)" stroke="rgb(204, 204, 204)" stroke-width="1px"></line><line x1="1040" y1="0" x2="1040" y2="5" style="visibility: inherit;" fill="rgb(0, 0, 0)" stroke="rgb(204, 204, 204)" stroke-width="1px"></line></g><g transform="translate(0, 8)"><text style="text-anchor: middle; visibility: hidden; font-family: Roboto, sans-serif; font-size: 12px; font-weight: 200;" x="0" y="0" dx="0em" dy="0.95em" fill="rgb(255, 255, 255)" stroke="none" stroke-width="1px">-20</text><text style="text-anchor: middle; visibility: inherit; font-family: Roboto, sans-serif; font-size: 12px; font-weight: 200;" x="115.55555555555554" y="0" dx="0em" dy="0.95em" fill="rgb(255, 255, 255)" stroke="none" stroke-width="1px">0</text><text style="text-anchor: middle; visibility: inherit; font-family: Roboto, sans-serif; font-size: 12px; font-weight: 200;" x="231.1111111111111" y="0" dx="0em" dy="0.95em" fill="rgb(255, 255, 255)" stroke="none" stroke-width="1px">20</text><text style="text-anchor: middle; visibility: inherit; font-family: Roboto, sans-serif; font-size: 12px; font-weight: 200;" x="346.66666666666663" y="0" dx="0em" dy="0.95em" fill="rgb(255, 255, 255)" stroke="none" stroke-width="1px">40</text><text style="text-anchor: middle; visibility: inherit; font-family: Roboto, sans-serif; font-size: 12px; font-weight: 200;" x="462.2222222222222" y="0" dx="0em" dy="0.95em" fill="rgb(255, 255, 255)" stroke="none" stroke-width="1px">60</text><text style="text-anchor: middle; visibility: inherit; font-family: Roboto, sans-serif; font-size: 12px; font-weight: 200;" x="577.7777777777778" y="0" dx="0em" dy="0.95em" fill="rgb(255, 255, 255)" stroke="none" stroke-width="1px">80</text><text style="text-anchor: middle; visibility: inherit; font-family: Roboto, sans-serif; font-size: 12px; font-weight: 200;" x="693.3333333333333" y="0" dx="0em" dy="0.95em" fill="rgb(255, 255, 255)" stroke="none" stroke-width="1px">100</text><text style="text-anchor: middle; visibility: inherit; font-family: Roboto, sans-serif; font-size: 12px; font-weight: 200;" x="808.8888888888889" y="0" dx="0em" dy="0.95em" fill="rgb(255, 255, 255)" stroke="none" stroke-width="1px">120</text><text style="text-anchor: middle; visibility: inherit; font-family: Roboto, sans-serif; font-size: 12px; font-weight: 200;" x="924.4444444444443" y="0" dx="0em" dy="0.95em" fill="rgb(255, 255, 255)" stroke="none" stroke-width="1px">140</text><text style="text-anchor: middle; visibility: hidden; font-family: Roboto, sans-serif; font-size: 12px; font-weight: 200;" x="1040" y="0" dx="0em" dy="0.95em" fill="rgb(255, 255, 255)" stroke="none" stroke-width="1px">160</text></g><line x1="0" y1="0" x2="1040" y2="0" fill="rgb(0, 0, 0)" stroke="rgb(204, 204, 204)" stroke-width="1px"></line></g></g></g></g></svg>