<svg viewBox="0 0 1090 400" xmlns="http://www.w3.org/2000/svg"><g><g><g><g><g><line x1="50" y1="376.984375" x2="45" y2="376.984375" style="visibility: inherit;" fill="rgb(0, 0, 0)" stroke="rgb(204, 204, 204)" stroke-width="1px"></line><line x1="50" y1="329.86132812499994" x2="45" y2="329.86132812499994" style="visibility: inherit;" fill="rgb(0, 0, 0)" stroke="rgb(204, 204, 204)" stroke-width="1px"></line><line x1="50" y1="282.73828125" x2="45" y2="282.73828125" style="visibility: inherit;" fill="rgb(0, 0, 0)" stroke="rgb(204, 204, 204)" stroke-width="1px"></line><line x1="50" y1="235.615234375" x2="45" y2="235.615234375" style="visibility: inherit;" fill="rgb(0, 0, 0)" stroke="rgb(204, 204, 204)" stroke-width="1px"></line><line x1="50" y1="188.49218749999997" x2="45" y2="188.49218749999997" style="visibility: inherit;" fill="rgb(0, 0, 0)" stroke="rgb(204, 204, 204)" stroke-width="1px"></line><line x1="50" y1="141.369140625" x2="45" y2="141.369140625" style="visibility: inherit;" fill="rgb(0, 0, 0)" stroke="rgb(204, 204, 204)" stroke-width="1px"></line><line x1="50" y1="94.24609374999996" x2="45" y2="94.24609374999996" style="visibility: inherit;" fill="rgb(0, 0, 0)" stroke="rgb(204, 204, 204)" stroke-width="1px"></line><line x1="50" y1="47.12304687500004" x2="45" y2="47.12304687500004" style="visibility: inherit;" fill="rgb(0, 0, 0)" stroke="rgb(204, 204, 204)" stroke-width="1px"></line><line x1="50" y1="0" x2="45" y2="0" style="visibility: inherit;" fill="rgb(0, 0, 0)" stroke="rgb(204, 204, 204)" stroke-width="1px"></line></g><g transform="translate(40, 0)"><text style="text-anchor: end; visibility: hidden; font-family: Roboto, sans-serif; font-size: 12px; font-weight: 200;" x="0" y="376.984375" dx="0em" dy="0.3em" fill="rgb(255, 255, 255)" stroke="none" stroke-width="1px">0.6</text><text style="text-anchor: end; visibility: inherit; font-family: Roboto, sans-serif; font-size: 12px; font-weight: 200;" x="0" y="329.86132812499994" dx="0em" dy="0.3em" fill="rgb(255, 255, 255)" stroke="none" stroke-width="1px">0.65</text><text style="text-anchor: end; visibility: inherit; font-family: Roboto, sans-serif; font-size: 12px; font-weight: 200;" x="0" y="282.73828125" dx="0em" dy="0.3em" fill="rgb(255, 255, 255)" stroke="none" stroke-width="1px">0.7</text><text style="text-anchor: end; visibility: inherit; font-family: Roboto, sans-serif; font-size: 12px; font-weight: 200;" x="0" y="235.615234375" dx="0em" dy="0.3em" fill="rgb(255, 255, 255)" stroke="none" stroke-width="1px">0.75</text><text style="text-anchor: end; visibility: inherit; font-family: Roboto, sans-serif; font-size: 12px; font-weight: 200;" x="0" y="188.49218749999997" dx="0em" dy="0.3em" fill="rgb(255, 255, 255)" stroke="none" stroke-width="1px">0.8</text><text style="text-anchor: end; visibility: inherit; font-family: Roboto, sans-serif; font-size: 12px; font-weight: 200;" x="0" y="141.369140625" dx="0em" dy="0.3em" fill="rgb(255, 255, 255)" stroke="none" stroke-width="1px">0.85</text><text style="text-anchor: end; visibility: inherit; font-family: Roboto, sans-serif; font-size: 12px; font-weight: 200;" x="0" y="94.24609374999996" dx="0em" dy="0.3em" fill="rgb(255, 255, 255)" stroke="none" stroke-width="1px">0.9</text><text style="text-anchor: end; visibility: inherit; font-family: Roboto, sans-serif; font-size: 12px; font-weight: 200;" x="0" y="47.12304687500004" dx="0em" dy="0.3em" fill="rgb(255, 255, 255)" stroke="none" stroke-width="1px">0.95</text><text style="text-anchor: end; visibility: hidden; font-family: Roboto, sans-serif; font-size: 12px; font-weight: 200;" x="0" y="0" dx="0em" dy="0.3em" fill="rgb(255, 255, 255)" stroke="none" stroke-width="1px">1</text></g><line x1="50" y1="0" x2="50" y2="376.984375" fill="rgb(0, 0, 0)" stroke="rgb(204, 204, 204)" stroke-width="1px"></line></g></g><g transform="translate(50, 0)" clip-path="url(#clip_0)"><clipPath id="clip_0"><rect width="1040" height="376"></rect></clipPath><g><g><g><line x1="0" y1="0" x2="0" y2="376.984375" fill="rgb(0, 0, 0)" stroke="rgb(189, 189, 189)" stroke-width="1px" opacity="0.25"></line><line x1="115.55555555555554" y1="0" x2="115.55555555555554" y2="376.984375" fill="rgb(0, 0, 0)" stroke="rgb(189, 189, 189)" stroke-width="1px" opacity="0.25"></line><line x1="231.1111111111111" y1="0" x2="231.1111111111111" y2="376.984375" fill="rgb(0, 0, 0)" stroke="rgb(189, 189, 189)" stroke-width="1px" opacity="0.25"></line><line x1="346.66666666666663" y1="0" x2="346.66666666666663" y2="376.984375" fill="rgb(0, 0, 0)" stroke="rgb(189, 189, 189)" stroke-width="1px" opacity="0.25"></line><line x1="462.2222222222222" y1="0" x2="462.2222222222222" y2="376.984375" fill="rgb(0, 0, 0)" stroke="rgb(189, 189, 189)" stroke-width="1px" opacity="0.25"></line><line x1="577.7777777777778" y1="0" x2="577.7777777777778" y2="376.984375" fill="rgb(0, 0, 0)" stroke="rgb(189, 189, 189)" stroke-width="1px" opacity="0.25"></line><line x1="693.3333333333333" y1="0" x2="693.3333333333333" y2="376.984375" fill="rgb(0, 0, 0)" stroke="rgb(189, 189, 189)" stroke-width="1px" opacity="0.25"></line><line x1="808.8888888888889" y1="0" x2="808.8888888888889" y2="376.984375" fill="rgb(0, 0, 0)" stroke="rgb(189, 189, 189)" stroke-width="1px" opacity="0.25"></line><line x1="924.4444444444443" y1="0" x2="924.4444444444443" y2="376.984375" fill="rgb(0, 0, 0)" stroke="rgb(189, 189, 189)" stroke-width="1px" opacity="0.25"></line><line x1="1040" y1="0" x2="1040" y2="376.984375" fill="rgb(0, 0, 0)" stroke="rgb(189, 189, 189)" stroke-width="1px" opacity="0.25"></line></g><g><line x1="0" y1="376.984375" x2="1040" y2="376.984375" fill="rgb(0, 0, 0)" stroke="rgb(189, 189, 189)" stroke-width="1px" opacity="0.25"></line><line x1="0" y1="329.86132812499994" x2="1040" y2="329.86132812499994" fill="rgb(0, 0, 0)" stroke="rgb(189, 189, 189)" stroke-width="1px" opacity="0.25"></line><line x1="0" y1="282.73828125" x2="1040" y2="282.73828125" fill="rgb(0, 0, 0)" stroke="rgb(189, 189, 189)" stroke-width="1px" opacity="0.25"></line><line x1="0" y1="235.615234375" x2="1040" y2="235.615234375" fill="rgb(0, 0, 0)" stroke="rgb(189, 189, 189)" stroke-width="1px" opacity="0.25"></line><line x1="0" y1="188.49218749999997" x2="1040" y2="188.49218749999997" fill="rgb(0, 0, 0)" stroke="rgb(189, 189, 189)" stroke-width="1px" opacity="0.25"></line><line x1="0" y1="141.369140625" x2="1040" y2="141.369140625" fill="rgb(0, 0, 0)" stroke="rgb(189, 189, 189)" stroke-width="1px" opacity="0.25"></line><line x1="0" y1="94.24609374999996" x2="1040" y2="94.24609374999996" fill="rgb(0, 0, 0)" stroke="rgb(189, 189, 189)" stroke-width="1px" opacity="0.25"></line><line x1="0" y1="47.12304687500004" x2="1040" y2="47.12304687500004" fill="rgb(0, 0, 0)" stroke="rgb(189, 189, 189)" stroke-width="1px" opacity="0.25"></line><line x1="0" y1="0" x2="1040" y2="0" fill="rgb(0, 0, 0)" stroke="rgb(189, 189, 189)" stroke-width="1px" opacity="0.25"></line></g></g></g><g><g><line x1="0" y1="942.4609375" x2="1040" y2="942.4609375" fill="rgb(0, 0, 0)" stroke="rgb(153, 153, 153)" stroke-width="1.5px"></line></g></g><g><g><line x1="115.55555555555554" y1="0" x2="115.55555555555554" y2="376.984375" fill="rgb(0, 0, 0)" stroke="rgb(153, 153, 153)" stroke-width="1.5px"></line></g></g><g><g><g><g><g><path style="fill: none;" stroke="rgb(238, 51, 119)" stroke-width="2px" d="M150.2222222222222,417.4780378579498L156,357.73296975492656L161.77777777777777,329.27094534003146L167.55555555555557,334.965126647868L173.33333333333331,300.2114859186047L179.11111111111111,274.0938594778246L184.88888888888889,265.8044901694172L190.66666666666666,256.16628768475897L196.44444444444443,305.98398227477344L202.22222222222223,270.71362573530195L208,250.8916698545607L213.77777777777777,237.8891413376125L219.55555555555554,234.534298922038L225.33333333333334,224.29692673716343L231.1111111111111,211.93081543347233L236.88888888888889,204.95587499156352L242.66666666666666,200.10412143965812L248.44444444444446,196.52627036472524L254.2222222222222,190.8230956115209L260,189.62398422289954L265.77777777777777,181.79160419449124L271.5555555555556,181.0931954829876L277.3333333333333,175.3394737642317L283.1111111111111,173.2209054672959L288.8888888888889,169.50471173464285L294.6666666666667,167.71954271679502L300.4444444444444,179.09604648651276L306.22222222222223,183.6991465724817L312,188.46153490309953L317.7777777777778,178.42679388009125L323.55555555555554,176.85153041901162L329.3333333333333,169.6825813129525L335.11111111111114,162.93613666096692L340.8888888888889,151.99763608129282L346.66666666666663,147.87961094474704L352.44444444444446,150.29892379714525L358.22222222222223,147.30493044758407L364,141.06295337865885L369.77777777777777,142.43019097384945L375.55555555555554,148.5852083319516L381.3333333333333,142.49796288648363L387.11111111111114,138.62334218389998L392.88888888888886,137.4099594096583L398.6666666666667,134.6814238860754L404.44444444444446,138.82354671362106L410.22222222222223,157.7574366233486L416,155.33650299134348L421.77777777777777,146.54873968233736L427.55555555555554,136.3859537670776L433.33333333333337,129.17689257068744L439.1111111111111,124.85145585285508L444.88888888888886,120.92253073947458L450.6666666666667,131.4573270374355L456.44444444444446,133.9994665335907L462.2222222222222,127.52272679515424L468,121.85845052850378L473.77777777777777,120.68266406298959L479.5555555555556,116.19845390106016L485.3333333333333,195.75098639970915L491.1111111111111,190.8025107877084L496.8888888888889,174.94125158450032L502.6666666666667,157.20019919100275L508.4444444444444,143.6659456840776L514.2222222222223,131.98892873274508L520,122.0930964911191L525.7777777777777,119.93433542876441L531.5555555555555,113.0821305551617L537.3333333333334,108.97080763100023L543.1111111111112,109.61590938277347L548.8888888888889,104.00145285674063L554.6666666666666,98.85454651753233L560.4444444444445,95.3218333731003L566.2222222222222,113.87412932313423L572,123.67182134045318L577.7777777777778,119.54790725568327L583.5555555555555,110.62747188681746L589.3333333333334,102.38558859467139L595.1111111111111,100.33008069021031L600.8888888888888,101.54185114747295L606.6666666666667,102.26891342183056L612.4444444444445,99.37095937471148L618.2222222222222,92.29751214569397L624,83.8301586547752L629.7777777777777,87.86315964359103L635.5555555555557,89.39384402508612L641.3333333333334,87.86720192406368L647.1111111111111,83.39475181627294L652.8888888888889,81.15582862248583L658.6666666666666,76.47830576449972L664.4444444444443,72.56040240247006L670.2222222222223,75.5443351859984L676,87.78179349218385L681.7777777777778,81.12072746266921L687.5555555555555,72.0116864796578L693.3333333333333,66.32396598438768L699.1111111111112,97.36450263168125L704.8888888888889,113.76604532558152L710.6666666666666,110.04797679958305L716.4444444444445,99.59283881241116L722.2222222222222,97.09849430272895L728,91.82314931429877L733.7777777777778,83.32326752049453L739.5555555555555,81.11293804501878L745.3333333333334,75.56345520622517L751.1111111111111,67.7882069139971L756.8888888888888,58.8997503151324L762.6666666666666,59.12364706202308L768.4444444444445,58.368868898363175L774.2222222222223,62.806129930026046L780,74.3596261969473L785.7777777777777,71.95603743828929L791.5555555555555,66.06830312412286L797.3333333333334,56.53414495852618L803.1111111111112,52.81415591820044L808.8888888888889,49.470772846767034L814.6666666666666,53.24398714556026L820.4444444444445,51.28460810130817L826.2222222222222,44.77430587401077L832,41.53496731398305L837.7777777777778,46.25972453141392L843.5555555555555,61.76443432239696L849.3333333333334,59.06422504279317L855.1111111111111,54.10993053331703L860.8888888888888,48.9145745331554L866.6666666666667,43.3522857331191L872.4444444444445,37.569859723177814L878.2222222222222,37.879119929814316L884,38.064676053796184L889.7777777777777,38.39830563364866L895.5555555555557,47.04505368857647L901.3333333333334,43.341962873609745L907.1111111111111,47.56619530263361L912.8888888888889,42.543258194806036L918.6666666666666,39.97404280099681L924.4444444444443,42.21125184733227L930.2222222222223,40.88625110977023L936,40.31352410267663L941.7777777777778,40.4144347693078L947.5555555555555,35.14030636854032L953.3333333333333,32.64267210443059L959.1111111111112,44.25851634739622L964.8888888888889,41.44776703345796L970.6666666666666,43.984602598603225L976.4444444444445,38.616070148799245L982.2222222222222,37.17318310250546L988,34.08467158025328L993.7777777777778,29.78648946696257" fill="none"></path></g><g><path style="fill: none;" stroke="rgb(51, 187, 238)" stroke-width="2px" d="M150.2222222222222,408.18625696162803L156,368.0466984952429L161.77777777777777,348.8896535757372L167.55555555555557,313.14400146598973L173.33333333333331,303.04560109130944L179.11111111111111,275.6804538123816L184.88888888888889,252.78940330676284L190.66666666666666,244.74647495438663L196.44444444444443,280.9544152565473L202.22222222222223,284.26955900316113L208,254.8003116976029L213.77777777777777,252.2939959514066L219.55555555555554,240.1759189055285L225.33333333333334,234.3504203857967L231.1111111111111,221.4637742220013L236.88888888888889,210.17547826181243L242.66666666666666,204.06942134912816L248.44444444444446,195.73794145075038L254.2222222222222,191.68376603397024L260,184.52785972011458L265.77777777777777,182.5682421450179L271.5555555555556,177.39145870851218L277.3333333333333,172.39602084372945L283.1111111111111,162.61926073290553L288.8888888888889,159.92067033497628L294.6666666666667,160.24645398027081L300.4444444444444,160.2752190663104L306.22222222222223,174.8517256060494L312,176.04015256744674L317.7777777777778,176.14195677743538L323.55555555555554,165.14466618076182L329.3333333333333,166.99288467471507L335.11111111111114,157.9325813722946L340.8888888888889,154.4413369065323L346.66666666666663,146.12277674250979L352.44444444444446,149.13366408834614L358.22222222222223,142.49362618546544L364,136.39796086784418L369.77777777777777,136.1302989788744L375.55555555555554,131.35741570966843L381.3333333333333,130.10521309540158L387.11111111111114,126.24199602053127L392.88888888888886,122.92381284613502L398.6666666666667,120.4327652417538L404.44444444444446,119.49384273776957L410.22222222222223,123.70948044753295L416,147.07746951667542L421.77777777777777,139.3705403030618L427.55555555555554,128.85600191552007L433.33333333333337,117.60158259427753L439.1111111111111,108.90399350136286L444.88888888888886,102.57405039837732L450.6666666666667,117.55861676195101L456.44444444444446,118.26946887964061L462.2222222222222,118.58484343253255L468,107.10444316323941L473.77777777777777,99.60495105419348L479.5555555555556,95.88323528283854L485.3333333333333,147.33045386073167L491.1111111111111,190.70195786142895L496.8888888888889,179.60434268200876L502.6666666666667,160.55375990813667L508.4444444444444,143.7887129730475L514.2222222222223,127.33918872287063L520,116.80263139641393L525.7777777777777,107.70221164743513L531.5555555555555,102.07525472146517L537.3333333333334,93.92008935374614L543.1111111111112,93.86154970411265L548.8888888888889,91.93705677302209L554.6666666666666,84.83641179613184L560.4444444444445,76.01930703330434L566.2222222222222,70.00665551041597L572,96.23994740558432L577.7777777777778,99.97688738849182L583.5555555555555,89.49360508883107L589.3333333333334,81.48097164430688L595.1111111111111,76.56225485987041L600.8888888888888,69.88785486544853L606.6666666666667,85.05474807620462L612.4444444444445,77.70626778949295L618.2222222222222,67.8513456289782L624,61.493845461782236L629.7777777777777,58.73516664984166L635.5555555555557,53.69022206210245L641.3333333333334,54.44197112206003L647.1111111111111,49.50277739842761L652.8888888888889,46.70596624083093L658.6666666666666,44.8056061108292L664.4444444444443,45.7770326095823L670.2222222222223,44.97065706729173L676,55.32290889001208L681.7777777777778,54.087920136124296L687.5555555555555,45.400471806523434L693.3333333333333,38.85433972608129L699.1111111111112,36.81602961912653L704.8888888888889,67.4900005817481L710.6666666666666,80.67084507629681L716.4444444444445,72.07516720099981L722.2222222222222,67.36230734670899L728,64.47902307527366L733.7777777777778,53.74677614676711L739.5555555555555,48.196544201457506L745.3333333333334,41.9767829634451L751.1111111111111,36.688967232492836L756.8888888888888,30.182108852207527L762.6666666666666,29.61216276575016L768.4444444444445,30.10374296680911L774.2222222222223,30.84326042835152L780,46.846470906647916L785.7777777777777,46.66814133390805L791.5555555555555,42.44897268445798L797.3333333333334,40.91772442430415L803.1111111111112,33.49734266136689L808.8888888888889,25.93321809733427L814.6666666666666,28.72992401869306L820.4444444444445,29.74110479515757L826.2222222222222,23.79061209533041L832,19.053358469335247L837.7777777777778,18.544922305935966L843.5555555555555,30.076190685507267L849.3333333333334,37.82849956618354L855.1111111111111,38.20103138222004L860.8888888888888,31.922895194977208L866.6666666666667,24.04386504684518L872.4444444444445,19.316446957965972L878.2222222222222,16.035426763731408L884,15.678341994196533L889.7777777777777,16.075365549965458L895.5555555555557,16.1468521368242L901.3333333333334,20.190755807003992L907.1111111111111,22.67268883799262L912.8888888888889,22.161320327533797L918.6666666666666,17.964646690935545L924.4444444444443,22.00384367468243L930.2222222222223,23.649382370858103L936,21.358105005710463L941.7777777777778,18.760812221662263L947.5555555555555,16.591162133743417L953.3333333333333,14.455824228058828L959.1111111111112,14.230442773025038L964.8888888888889,22.152828165014558L970.6666666666666,18.29296154658941L976.4444444444445,19.589074781572457L982.2222222222222,15.810024945868847L988,12.931320626956914L993.7777777777778,9.259160535438507" fill="none"></path></g></g></g></g><g opacity="0.20000000298023224"><g><g><g><path style="fill: none;" stroke="rgb(238, 51, 119)" stroke-width="2px" d="M144.44444444444446,378.9848583890125L150.2222222222222,355.6456420919858L156,270.6240869080648L161.77777777777777,287.2949877916835L167.55555555555557,343.42032226733863L173.33333333333331,248.39623778825626L179.11111111111111,235.0595507863909L184.88888888888889,253.39750243583694L190.66666666666666,241.72786619979888L196.44444444444443,380.6519653298892L202.22222222222223,217.83296631416306L208,221.16712402086705L213.77777777777777,218.38864990277216L219.55555555555554,229.50254637515172L225.33333333333334,208.9418041962199L231.1111111111111,193.38232666486874L236.88888888888889,194.49369384208694L242.66666666666666,192.82658690121025L248.44444444444446,191.15953613538295L254.2222222222222,182.26837401743978L260,187.82532225362957L265.77777777777777,170.04305419279262L271.5555555555556,180.045583487954L277.3333333333333,166.70889648608863L283.1111111111111,170.04305419279262L288.8888888888889,163.93042236799374L294.6666666666667,165.04178954521194L300.4444444444444,196.16080078296363L306.22222222222223,190.60379637172446L312,195.60511719435453L317.7777777777778,163.37468260433525L323.55555555555554,174.4886352517642L329.3333333333333,158.92915772041306L335.11111111111114,152.81646972056478L340.8888888888889,135.58988524833694L346.66666666666663,141.70257324818522L352.44444444444446,153.92789307283238L358.22222222222223,142.81394042540342L364,131.69998777797446L369.77777777777777,144.4810473662801L375.55555555555554,157.81773436814547L381.3333333333333,133.36709471885115L387.11111111111114,132.81141113024205L392.88888888888886,135.58988524833694L398.6666666666667,130.58862060075626L404.44444444444446,145.0367309548892L410.22222222222223,186.15827148780227L416,151.70510254334658L421.77777777777777,133.36709471885115L427.55555555555554,121.14177489420399L433.33333333333337,118.3633007761091L439.1111111111111,118.3633007761091L444.88888888888886,115.02914306940511L450.6666666666667,147.259521484375L456.44444444444446,137.81267577782273L462.2222222222222,117.8076171875L468,113.36203612852842L473.77777777777777,118.9189843647182L479.5555555555556,109.47213865816593L485.3333333333333,315.07978514768183L491.1111111111111,183.37979736970738L496.8888888888889,151.1493627796881L502.6666666666667,130.58862060075626L508.4444444444444,123.36456542368978L514.2222222222223,114.47340330574661L520,107.24934812868014L525.7777777777777,116.6961938352324L531.5555555555555,102.80382324475795L537.3333333333334,102.80382324475795L543.1111111111112,110.58356201043352L548.8888888888889,95.57976806769148L554.6666666666666,91.13418700871989L560.4444444444445,90.0227636564523L566.2222222222222,141.70257324818522L572,138.36835936643183L577.7777777777778,113.36203612852842L583.5555555555555,97.24681883351877L589.3333333333334,90.0227636564523L595.1111111111111,97.24681883351877L600.8888888888888,103.35950683336705L606.6666666666667,103.35950683336705L612.4444444444445,95.02402830403298L618.2222222222222,81.68734130216762L624,71.12912841839716L629.7777777777777,93.91266112681478L635.5555555555557,91.68987059732899L641.3333333333334,85.57723877253011L647.1111111111111,76.68607665458694L652.8888888888889,77.79744383180514L658.6666666666666,69.46202147752047L664.4444444444443,66.68354735942557L670.2222222222223,80.02023436129093L676,106.13798095146194L681.7777777777778,71.12912841839716L687.5555555555555,58.3481250051409L693.3333333333333,57.79238524148241L699.1111111111112,143.92530760262161L704.8888888888889,138.36835936643183L710.6666666666666,104.47087401058525L716.4444444444445,83.91013183165342L722.2222222222222,93.35697753820568L728,83.91013183165342L733.7777777777778,70.57344482978806L739.5555555555555,77.79744383180514L745.3333333333334,67.23923094803467L751.1111111111111,56.12533447565511L756.8888888888888,45.56706541683525L762.6666666666666,59.4594921823591L768.4444444444445,57.23670165287331L774.2222222222223,69.46202147752047L780,91.68987059732899L785.7777777777777,68.35065430030227L791.5555555555555,57.23670165287331L797.3333333333334,42.23290771013126L803.1111111111112,47.23417235771194L808.8888888888889,44.45569823961705L814.6666666666666,58.90380859375L820.4444444444445,48.34553953493014L826.2222222222222,35.00885253306478L832,36.675959473941475L837.7777777777778,53.34686035756022L843.5555555555555,85.02149900887161L849.3333333333334,55.013911123387516L855.1111111111111,46.67848876910284L860.8888888888888,41.12154053291306L866.6666666666667,35.00885253306478L872.4444444444445,28.8962207082659L878.2222222222222,38.34301023976877L884,38.34301023976877L889.7777777777777,38.89875000342727L895.5555555555557,60.0151757709682L901.3333333333334,37.787326651159674L907.1111111111111,53.90254394616932L912.8888888888889,35.00885253306478L918.6666666666666,36.12021971028298L924.4444444444443,45.56706541683525L930.2222222222223,38.89875000342727L936,39.45443359203637L941.7777777777778,40.565800769254565L947.5555555555555,27.229113767389208L953.3333333333333,28.8962207082659L959.1111111111112,61.68228271184489L964.8888888888889,37.231643062550575L970.6666666666666,47.78985594632104L976.4444444444445,30.5632714740932L982.2222222222222,35.00885253306478L988,29.451904296875L993.7777777777778,23.339216297026724" fill="none"></path></g><g><path style="fill: none;" stroke="rgb(51, 187, 238)" stroke-width="2px" d="M144.44444444444446,388.57062499271706L150.2222222222222,342.16997801791877L156,309.52283691149205L161.77777777777777,320.6367333838716L167.55555555555557,260.0658740242943L173.33333333333331,287.9895922774449L179.11111111111111,234.78165281703696L184.88888888888889,218.52757079992443L190.66666666666666,232.69783935975283L196.44444444444443,335.22376463515684L202.22222222222223,289.23993652686477L208,210.60891113709658L213.77777777777777,248.53515868540853L219.55555555555554,222.0006494037807L225.33333333333334,225.61270507983863L231.1111111111111,202.13451171061024L236.88888888888889,193.24340576771647L242.66666666666666,194.91045653354377L248.44444444444446,183.2408202975057L254.2222222222222,185.60253172414377L260,173.79403076600283L265.77777777777777,179.62882079649717L271.5555555555556,169.6262915013358L277.3333333333333,164.90286864805967L283.1111111111111,147.95412597013637L288.8888888888889,155.87278563296422L294.6666666666667,160.73512938339263L300.4444444444444,160.3183666919358L306.22222222222223,196.71648437157273L312,177.8227929584682L317.7777777777778,176.29466308979318L323.55555555555554,148.64873045589775L329.3333333333333,169.76521239848807L335.11111111111114,144.34212646912783L340.8888888888889,149.20447021955624L346.66666666666663,133.6449365131557L352.44444444444446,153.64999510347843L358.22222222222223,132.5335693359375L364,127.25446289405227L369.77777777777777,135.72880614548922L375.55555555555554,124.19809080660343L381.3333333333333,128.2269091741182L387.11111111111114,120.44717040844262L392.88888888888886,117.94653808465227L398.6666666666667,116.6961938352324L404.44444444444446,118.08545898180455L410.22222222222223,130.03293701214716L416,182.1294531202875L421.77777777777777,127.81014648266137L427.55555555555554,113.08419433422387L433.33333333333337,100.71995361242443L439.1111111111111,95.85760986199602L444.88888888888886,93.07913574390113L450.6666666666667,140.03546630730852L456.44444444444446,119.33574705617502L462.2222222222222,119.05790526187047L468,89.88384275930002L473.77777777777777,88.355712890625L479.5555555555556,90.30066162580624L485.3333333333333,224.50128172757104L491.1111111111111,255.759213862475L496.8888888888889,162.95791991287842L502.6666666666667,131.9778857473284L508.4444444444444,118.64114257041365L514.2222222222223,102.66490234760568L520,100.99779540672898L525.7777777777777,94.05158202396706L531.5555555555555,93.63481933251023L537.3333333333334,81.68734130216762L543.1111111111112,93.77374022966251L548.8888888888889,89.05031737638637L554.6666666666666,74.1854443307966L560.4444444444445,62.79364988906309L566.2222222222222,60.98767822608352L572,135.58988524833694L577.7777777777778,105.58229736285284L583.5555555555555,73.76868163933977L589.3333333333334,69.46202147752047L595.1111111111111,69.18417968321592L600.8888888888888,59.876254873815924L606.6666666666667,107.80508789233863L612.4444444444445,66.68354735942557L618.2222222222222,53.06896238820627L624,51.957595210988075L629.7777777777777,54.59714843193069L635.5555555555557,46.12280518049374L641.3333333333334,55.569594711996615L647.1111111111111,42.09398681297898L652.8888888888889,42.51074950443581L658.6666666666666,41.95506591582671L664.4444444444443,47.23417235771194L670.2222222222223,43.761093753855675L676,70.85128662409261L681.7777777777778,52.235437005292624L687.5555555555555,32.369299312122166L693.3333333333333,29.035141605418175L699.1111111111112,33.75856445869431L704.8888888888889,113.50095702568069L710.6666666666666,100.44211181811988L716.4444444444445,59.18165038805455L722.2222222222222,60.29301756527275L728,60.154096668120474L733.7777777777778,37.6484057540074L739.5555555555555,39.87119628349319L745.3333333333334,32.647141106426716L751.1111111111111,28.75724363606423L756.8888888888888,20.421821281779557L762.6666666666666,28.75724363606423L768.4444444444445,30.84111326839775L774.2222222222223,31.95253662066534L780,70.85128662409261L785.7777777777777,46.40064697479829L791.5555555555555,36.12021971028298L797.3333333333334,38.62085203407332L803.1111111111112,22.3667700169608L808.8888888888889,14.587031251285225L814.6666666666666,32.924982900731266L820.4444444444445,31.257875959854573L826.2222222222222,14.864873045589775L832,11.947478030342609L837.7777777777778,17.78226806083694L843.5555555555555,47.373093254864216L849.3333333333334,49.45696288719773L855.1111111111111,38.75982910627499L860.8888888888888,22.505690914113075L866.6666666666667,12.225319824647158L872.4444444444445,12.225319824647158L878.2222222222222,11.113896472379565L884,15.142714839894325L889.7777777777777,16.670900883618742L895.5555555555557,16.254082017112523L901.3333333333334,26.25661131227389L907.1111111111111,26.39558838447556L912.8888888888889,21.39426756184548L918.6666666666666,11.669636236038059L924.4444444444443,28.062639150302857L930.2222222222223,26.117690415121615L936,17.921188957989216L941.7777777777778,14.864873045589775L947.5555555555555,13.336687001865357L953.3333333333333,11.25281736953184L959.1111111111112,13.892370590474457L964.8888888888889,34.03640625299886L970.6666666666666,12.503161618951708L976.4444444444445,21.53324463404715L982.2222222222222,10.141450192313641L988,8.613264148589224L993.7777777777778,3.7509203981608152" fill="none"></path></g></g></g></g></g></g><g transform="translate(50, 376)" clip-path="url(#clip_1)"><clipPath id="clip_1"><rect width="1040" height="23"></rect></clipPath><g><g><line x1="0" y1="0" x2="0" y2="5" style="visibility: inherit;" fill="rgb(0, 0, 0)" stroke="rgb(204, 204, 204)" stroke-width="1px"></line><line x1="115.55555555555554" y1="0" x2="115.55555555555554" y2="5" style="visibility: inherit;" fill="rgb(0, 0, 0)" stroke="rgb(204, 204, 204)" stroke-width="1px"></line><line x1="231.1111111111111" y1="0" x2="231.1111111111111" y2="5" style="visibility: inherit;" fill="rgb(0, 0, 0)" stroke="rgb(204, 204, 204)" stroke-width="1px"></line><line x1="346.66666666666663" y1="0" x2="346.66666666666663" y2="5" style="visibility: inherit;" fill="rgb(0, 0, 0)" stroke="rgb(204, 204, 204)" stroke-width="1px"></line><line x1="462.2222222222222" y1="0" x2="462.2222222222222" y2="5" style="visibility: inherit;" fill="rgb(0, 0, 0)" stroke="rgb(204, 204, 204)" stroke-width="1px"></line><line x1="577.7777777777778" y1="0" x2="577.7777777777778" y2="5" style="visibility: inherit;" fill="rgb(0, 0, 0)" stroke="rgb(204, 204, 204)" stroke-width="1px"></line><line x1="693.3333333333333" y1="0" x2="693.3333333333333" y2="5" style="visibility: inherit;" fill="rgb(0, 0, 0)" stroke="rgb(204, 204, 204)" stroke-width="1px"></line><line x1="808.8888888888889" y1="0" x2="808.8888888888889" y2="5" style="visibility: inherit;" fill="rgb(0, 0, 0)" stroke="rgb(204, 204, 204)" stroke-width="1px"></line><line x1="924.4444444444443" y1="0" x2="924.4444444444443" y2="5" style="visibility: inherit;" fill="rgb(0, 0, 0)" stroke="rgb(204, 204, 204)" stroke-width="1px"></line><line x1="1040" y1="0" x2="1040" y2="5" style="visibility: inherit;" fill="rgb(0, 0, 0)" stroke="rgb(204, 204, 204)" stroke-width="1px"></line></g><g transform="translate(0, 8)"><text style="text-anchor: middle; visibility: hidden; font-family: Roboto, sans-serif; font-size: 12px; font-weight: 200;" x="0" y="0" dx="0em" dy="0.95em" fill="rgb(255, 255, 255)" stroke="none" stroke-width="1px">-20</text><text style="text-anchor: middle; visibility: inherit; font-family: Roboto, sans-serif; font-size: 12px; font-weight: 200;" x="115.55555555555554" y="0" dx="0em" dy="0.95em" fill="rgb(255, 255, 255)" stroke="none" stroke-width="1px">0</text><text style="text-anchor: middle; visibility: inherit; font-family: Roboto, sans-serif; font-size: 12px; font-weight: 200;" x="231.1111111111111" y="0" dx="0em" dy="0.95em" fill="rgb(255, 255, 255)" stroke="none" stroke-width="1px">20</text><text style="text-anchor: middle; visibility: inherit; font-family: Roboto, sans-serif; font-size: 12px; font-weight: 200;" x="346.66666666666663" y="0" dx="0em" dy="0.95em" fill="rgb(255, 255, 255)" stroke="none" stroke-width="1px">40</text><text style="text-anchor: middle; visibility: inherit; font-family: Roboto, sans-serif; font-size: 12px; font-weight: 200;" x="462.2222222222222" y="0" dx="0em" dy="0.95em" fill="rgb(255, 255, 255)" stroke="none" stroke-width="1px">60</text><text style="text-anchor: middle; visibility: inherit; font-family: Roboto, sans-serif; font-size: 12px; font-weight: 200;" x="577.7777777777778" y="0" dx="0em" dy="0.95em" fill="rgb(255, 255, 255)" stroke="none" stroke-width="1px">80</text><text style="text-anchor: middle; visibility: inherit; font-family: Roboto, sans-serif; font-size: 12px; font-weight: 200;" x="693.3333333333333" y="0" dx="0em" dy="0.95em" fill="rgb(255, 255, 255)" stroke="none" stroke-width="1px">100</text><text style="text-anchor: middle; visibility: inherit; font-family: Roboto, sans-serif; font-size: 12px; font-weight: 200;" x="808.8888888888889" y="0" dx="0em" dy="0.95em" fill="rgb(255, 255, 255)" stroke="none" stroke-width="1px">120</text><text style="text-anchor: middle; visibility: inherit; font-family: Roboto, sans-serif; font-size: 12px; font-weight: 200;" x="924.4444444444443" y="0" dx="0em" dy="0.95em" fill="rgb(255, 255, 255)" stroke="none" stroke-width="1px">140</text><text style="text-anchor: middle; visibility: hidden; font-family: Roboto, sans-serif; font-size: 12px; font-weight: 200;" x="1040" y="0" dx="0em" dy="0.95em" fill="rgb(255, 255, 255)" stroke="none" stroke-width="1px">160</text></g><line x1="0" y1="0" x2="1040" y2="0" fill="rgb(0, 0, 0)" stroke="rgb(204, 204, 204)" stroke-width="1px"></line></g></g></g></g></svg>