<svg viewBox="0 0 1090 400" xmlns="http://www.w3.org/2000/svg"><g><g><g><g><g><line x1="41.171875" y1="376.921875" x2="36.171875" y2="376.921875" style="visibility: inherit;" fill="rgb(0, 0, 0)" stroke="rgb(204, 204, 204)" stroke-width="1px"></line><line x1="41.171875" y1="342.65625" x2="36.171875" y2="342.65625" style="visibility: inherit;" fill="rgb(0, 0, 0)" stroke="rgb(204, 204, 204)" stroke-width="1px"></line><line x1="41.171875" y1="308.390625" x2="36.171875" y2="308.390625" style="visibility: inherit;" fill="rgb(0, 0, 0)" stroke="rgb(204, 204, 204)" stroke-width="1px"></line><line x1="41.171875" y1="274.125" x2="36.171875" y2="274.125" style="visibility: inherit;" fill="rgb(0, 0, 0)" stroke="rgb(204, 204, 204)" stroke-width="1px"></line><line x1="41.171875" y1="239.859375" x2="36.171875" y2="239.859375" style="visibility: inherit;" fill="rgb(0, 0, 0)" stroke="rgb(204, 204, 204)" stroke-width="1px"></line><line x1="41.171875" y1="205.59374999999997" x2="36.171875" y2="205.59374999999997" style="visibility: inherit;" fill="rgb(0, 0, 0)" stroke="rgb(204, 204, 204)" stroke-width="1px"></line><line x1="41.171875" y1="171.32812500000003" x2="36.171875" y2="171.32812500000003" style="visibility: inherit;" fill="rgb(0, 0, 0)" stroke="rgb(204, 204, 204)" stroke-width="1px"></line><line x1="41.171875" y1="137.06250000000006" x2="36.171875" y2="137.06250000000006" style="visibility: inherit;" fill="rgb(0, 0, 0)" stroke="rgb(204, 204, 204)" stroke-width="1px"></line><line x1="41.171875" y1="102.79687499999999" x2="36.171875" y2="102.79687499999999" style="visibility: inherit;" fill="rgb(0, 0, 0)" stroke="rgb(204, 204, 204)" stroke-width="1px"></line><line x1="41.171875" y1="68.53125000000003" x2="36.171875" y2="68.53125000000003" style="visibility: inherit;" fill="rgb(0, 0, 0)" stroke="rgb(204, 204, 204)" stroke-width="1px"></line><line x1="41.171875" y1="34.265625000000014" x2="36.171875" y2="34.265625000000014" style="visibility: inherit;" fill="rgb(0, 0, 0)" stroke="rgb(204, 204, 204)" stroke-width="1px"></line><line x1="41.171875" y1="0" x2="36.171875" y2="0" style="visibility: inherit;" fill="rgb(0, 0, 0)" stroke="rgb(204, 204, 204)" stroke-width="1px"></line></g><g transform="translate(31.171875, 0)"><text style="text-anchor: end; visibility: hidden; font-family: Roboto, sans-serif; font-size: 12px; font-weight: 200;" x="0" y="376.921875" dx="0em" dy="0.3em" fill="rgb(255, 255, 255)" stroke="none" stroke-width="1px">0</text><text style="text-anchor: end; visibility: inherit; font-family: Roboto, sans-serif; font-size: 12px; font-weight: 200;" x="0" y="342.65625" dx="0em" dy="0.3em" fill="rgb(255, 255, 255)" stroke="none" stroke-width="1px">0.1</text><text style="text-anchor: end; visibility: inherit; font-family: Roboto, sans-serif; font-size: 12px; font-weight: 200;" x="0" y="308.390625" dx="0em" dy="0.3em" fill="rgb(255, 255, 255)" stroke="none" stroke-width="1px">0.2</text><text style="text-anchor: end; visibility: inherit; font-family: Roboto, sans-serif; font-size: 12px; font-weight: 200;" x="0" y="274.125" dx="0em" dy="0.3em" fill="rgb(255, 255, 255)" stroke="none" stroke-width="1px">0.3</text><text style="text-anchor: end; visibility: inherit; font-family: Roboto, sans-serif; font-size: 12px; font-weight: 200;" x="0" y="239.859375" dx="0em" dy="0.3em" fill="rgb(255, 255, 255)" stroke="none" stroke-width="1px">0.4</text><text style="text-anchor: end; visibility: inherit; font-family: Roboto, sans-serif; font-size: 12px; font-weight: 200;" x="0" y="205.59374999999997" dx="0em" dy="0.3em" fill="rgb(255, 255, 255)" stroke="none" stroke-width="1px">0.5</text><text style="text-anchor: end; visibility: inherit; font-family: Roboto, sans-serif; font-size: 12px; font-weight: 200;" x="0" y="171.32812500000003" dx="0em" dy="0.3em" fill="rgb(255, 255, 255)" stroke="none" stroke-width="1px">0.6</text><text style="text-anchor: end; visibility: inherit; font-family: Roboto, sans-serif; font-size: 12px; font-weight: 200;" x="0" y="137.06250000000006" dx="0em" dy="0.3em" fill="rgb(255, 255, 255)" stroke="none" stroke-width="1px">0.7</text><text style="text-anchor: end; visibility: inherit; font-family: Roboto, sans-serif; font-size: 12px; font-weight: 200;" x="0" y="102.79687499999999" dx="0em" dy="0.3em" fill="rgb(255, 255, 255)" stroke="none" stroke-width="1px">0.8</text><text style="text-anchor: end; visibility: inherit; font-family: Roboto, sans-serif; font-size: 12px; font-weight: 200;" x="0" y="68.53125000000003" dx="0em" dy="0.3em" fill="rgb(255, 255, 255)" stroke="none" stroke-width="1px">0.9</text><text style="text-anchor: end; visibility: inherit; font-family: Roboto, sans-serif; font-size: 12px; font-weight: 200;" x="0" y="34.265625000000014" dx="0em" dy="0.3em" fill="rgb(255, 255, 255)" stroke="none" stroke-width="1px">1</text><text style="text-anchor: end; visibility: hidden; font-family: Roboto, sans-serif; font-size: 12px; font-weight: 200;" x="0" y="0" dx="0em" dy="0.3em" fill="rgb(255, 255, 255)" stroke="none" stroke-width="1px">1.1</text></g><line x1="41.171875" y1="0" x2="41.171875" y2="376.921875" fill="rgb(0, 0, 0)" stroke="rgb(204, 204, 204)" stroke-width="1px"></line></g></g><g transform="translate(41, 0)" clip-path="url(#clip_0)"><clipPath id="clip_0"><rect width="1048" height="376"></rect></clipPath><g><g><g><line x1="0" y1="0" x2="0" y2="376.921875" fill="rgb(0, 0, 0)" stroke="rgb(189, 189, 189)" stroke-width="1px" opacity="0.25"></line><line x1="116.53645833333333" y1="0" x2="116.53645833333333" y2="376.921875" fill="rgb(0, 0, 0)" stroke="rgb(189, 189, 189)" stroke-width="1px" opacity="0.25"></line><line x1="233.07291666666666" y1="0" x2="233.07291666666666" y2="376.921875" fill="rgb(0, 0, 0)" stroke="rgb(189, 189, 189)" stroke-width="1px" opacity="0.25"></line><line x1="349.609375" y1="0" x2="349.609375" y2="376.921875" fill="rgb(0, 0, 0)" stroke="rgb(189, 189, 189)" stroke-width="1px" opacity="0.25"></line><line x1="466.1458333333333" y1="0" x2="466.1458333333333" y2="376.921875" fill="rgb(0, 0, 0)" stroke="rgb(189, 189, 189)" stroke-width="1px" opacity="0.25"></line><line x1="582.6822916666667" y1="0" x2="582.6822916666667" y2="376.921875" fill="rgb(0, 0, 0)" stroke="rgb(189, 189, 189)" stroke-width="1px" opacity="0.25"></line><line x1="699.21875" y1="0" x2="699.21875" y2="376.921875" fill="rgb(0, 0, 0)" stroke="rgb(189, 189, 189)" stroke-width="1px" opacity="0.25"></line><line x1="815.7552083333334" y1="0" x2="815.7552083333334" y2="376.921875" fill="rgb(0, 0, 0)" stroke="rgb(189, 189, 189)" stroke-width="1px" opacity="0.25"></line><line x1="932.2916666666666" y1="0" x2="932.2916666666666" y2="376.921875" fill="rgb(0, 0, 0)" stroke="rgb(189, 189, 189)" stroke-width="1px" opacity="0.25"></line><line x1="1048.828125" y1="0" x2="1048.828125" y2="376.921875" fill="rgb(0, 0, 0)" stroke="rgb(189, 189, 189)" stroke-width="1px" opacity="0.25"></line></g><g><line x1="0" y1="376.921875" x2="1048.828125" y2="376.921875" fill="rgb(0, 0, 0)" stroke="rgb(189, 189, 189)" stroke-width="1px" opacity="0.25"></line><line x1="0" y1="342.65625" x2="1048.828125" y2="342.65625" fill="rgb(0, 0, 0)" stroke="rgb(189, 189, 189)" stroke-width="1px" opacity="0.25"></line><line x1="0" y1="308.390625" x2="1048.828125" y2="308.390625" fill="rgb(0, 0, 0)" stroke="rgb(189, 189, 189)" stroke-width="1px" opacity="0.25"></line><line x1="0" y1="274.125" x2="1048.828125" y2="274.125" fill="rgb(0, 0, 0)" stroke="rgb(189, 189, 189)" stroke-width="1px" opacity="0.25"></line><line x1="0" y1="239.859375" x2="1048.828125" y2="239.859375" fill="rgb(0, 0, 0)" stroke="rgb(189, 189, 189)" stroke-width="1px" opacity="0.25"></line><line x1="0" y1="205.59374999999997" x2="1048.828125" y2="205.59374999999997" fill="rgb(0, 0, 0)" stroke="rgb(189, 189, 189)" stroke-width="1px" opacity="0.25"></line><line x1="0" y1="171.32812500000003" x2="1048.828125" y2="171.32812500000003" fill="rgb(0, 0, 0)" stroke="rgb(189, 189, 189)" stroke-width="1px" opacity="0.25"></line><line x1="0" y1="137.06250000000006" x2="1048.828125" y2="137.06250000000006" fill="rgb(0, 0, 0)" stroke="rgb(189, 189, 189)" stroke-width="1px" opacity="0.25"></line><line x1="0" y1="102.79687499999999" x2="1048.828125" y2="102.79687499999999" fill="rgb(0, 0, 0)" stroke="rgb(189, 189, 189)" stroke-width="1px" opacity="0.25"></line><line x1="0" y1="68.53125000000003" x2="1048.828125" y2="68.53125000000003" fill="rgb(0, 0, 0)" stroke="rgb(189, 189, 189)" stroke-width="1px" opacity="0.25"></line><line x1="0" y1="34.265625000000014" x2="1048.828125" y2="34.265625000000014" fill="rgb(0, 0, 0)" stroke="rgb(189, 189, 189)" stroke-width="1px" opacity="0.25"></line><line x1="0" y1="0" x2="1048.828125" y2="0" fill="rgb(0, 0, 0)" stroke="rgb(189, 189, 189)" stroke-width="1px" opacity="0.25"></line></g></g></g><g><g><line x1="0" y1="376.921875" x2="1048.828125" y2="376.921875" fill="rgb(0, 0, 0)" stroke="rgb(153, 153, 153)" stroke-width="1.5px"></line></g></g><g><g><line x1="116.53645833333333" y1="0" x2="116.53645833333333" y2="376.921875" fill="rgb(0, 0, 0)" stroke="rgb(153, 153, 153)" stroke-width="1.5px"></line></g></g><g><g><g><g><g><path style="fill: none;" stroke="rgb(238, 51, 119)" stroke-width="2px" d="M151.49739583333331,-30.354642023698354L157.32421875,19.123150275137256L163.15104166666666,47.17694806124878L168.97786458333334,14.365683433639225L174.8046875,53.17428645932374L180.63151041666666,88.20917963328765L186.45833333333334,100.91044225982898L192.28515625,113.9881965275611L198.11197916666666,70.2182798184076L203.93880208333334,97.84094435296448L209.765625,116.8110609414124L215.59244791666666,129.36120641729894L221.41927083333334,131.90170887766985L227.24609375,146.42398748724386L233.07291666666666,158.2309365389483L238.89973958333334,162.6042358070428L244.7265625,168.9383570531068L250.55338541666669,172.2034683850476L256.3802083333333,179.14334143524678L262.20703125,179.78212980114992L268.03385416666663,186.6334875987594L273.86067708333337,189.93236540879457L279.6875,197.54280422488296L285.51432291666663,200.2218761435231L291.34114583333337,199.54563203446065L297.16796875,203.3765593503811L302.99479166666663,192.50198681564856L308.8216145833333,188.80868305434882L314.6484375,185.15645922876385L320.4752604166667,197.87862310996562L326.3020833333333,197.63672941067665L332.12890625,205.99672776145863L337.9557291666667,211.43970480653718L343.7825520833333,219.68743676322865L349.609375,221.71474689521474L355.4361979166667,221.74932827297374L361.2630208333333,225.11351104322966L367.08984375,228.42566670344868L372.9166666666667,228.34436582395543L378.7434895833333,223.91478450304422L384.5703125,230.01677872162736L390.3971354166667,233.45977851597752L396.2239583333333,240.16024014346857L402.05078125,241.19155228656206L407.8776041666667,228.26076215735768L413.7044270833333,199.36871053929676L419.53125,210.39426388499905L425.3580729166667,222.20772047808674L431.1848958333333,234.1546657188068L437.01171875,245.73193710243123L442.8385416666667,250.0824993372445L448.6653645833333,253.88256176795028L454.4921875,239.4771355818079L460.3190104166667,234.81573237547948L466.1458333333333,243.18929136735028L471.97265625,247.56976742598025L477.7994791666667,251.5288828193552L483.62630208333337,254.46100556057138L489.453125,145.695023417183L495.27994791666663,161.79507715461153L501.10677083333337,187.64269544754922L506.93359375,208.81513363241854L512.7604166666666,227.54009039734132L518.5872395833334,241.27012210248012L524.4140625,252.6717221690452L530.2408854166666,257.1432642510227L536.0677083333333,262.88113171320805L541.89453125,265.179210826526L547.7213541666667,261.50397533462643L553.5481770833334,269.60534874594924L559.375,277.0751753996862L565.2018229166666,278.6782853514584L571.0286458333333,244.15559504989574L576.85546875,242.2508810557502L582.6822916666667,249.06606757030355L588.5091145833334,261.56040027818364L594.3359375,268.35477706391384L600.1627604166666,273.4661148781256L605.9895833333333,263.9155606590764L611.81640625,264.5745115612034L617.6432291666666,272.8492976611306L623.4700520833334,277.63494547816816L629.296875,284.17422837812575L635.1236979166666,280.02564830399376L640.9505208333334,277.086100072812L646.77734375,280.7179785329258L652.6041666666666,288.18563047882355L658.4309895833334,285.79208698473235L664.2578125,291.4893688424043L670.0846354166666,294.2075983562238L675.9114583333334,290.54735608715816L681.73828125,278.9432661023379L687.5651041666666,286.82831433279904L693.3919270833334,297.82275622629277L699.21875,305.7136126790905L705.0455729166667,253.68831415754343L710.8723958333334,242.73244286310248L716.69921875,253.35376815263373L722.5260416666666,267.82396729783085L728.3528645833333,269.32648812939743L734.1796875,276.6666363836677L740.0065104166667,282.32271882475027L745.8333333333334,284.4007829331941L751.66015625,288.96718388183933L757.4869791666666,298.4809308458657L763.3138020833333,305.3364223936523L769.140625,305.4563641165912L774.9674479166667,303.6948875371125L780.7942708333334,297.1837959674601L786.62109375,287.1950086005094L792.4479166666666,293.0523409240358L798.2747395833333,300.5303910402082L804.1015625,308.1289622001051L809.9283854166667,312.345898298715L815.7552083333334,313.3082802343261L821.58203125,311.7522630980844L827.4088541666666,313.58478877156887L833.2356770833333,320.645966202713L839.0625,323.90657752328184L844.8893229166667,316.43849922015113L850.7161458333334,299.86310642685794L856.54296875,304.93129472643915L862.3697916666666,309.3431255032765L868.1966145833333,315.9970794180868L874.0234375,321.15156986567155L879.8502604166666,326.6686550723554L885.6770833333334,327.98279022966574L891.50390625,325.7836524260104L897.3307291666666,325.5344558426848L903.1575520833334,314.2619755789853L908.984375,317.7715273484717L914.8111979166666,313.59157522995804L920.6380208333334,318.81995415433215L926.46484375,319.6335990307493L932.2916666666666,314.68631109704904L938.1184895833334,318.53842961444155L943.9453125,320.7706949367967L949.7721354166666,319.93152819155733L955.5989583333334,323.987433935987L961.42578125,325.9965584442985L967.2526041666667,307.5439152011855L973.0794270833334,314.4334719899421L978.90625,312.7530618103966L984.7330729166666,320.05491829582303L990.5598958333333,322.9676392654672L996.38671875,328.0121219283213L1002.2135416666667,331.3525829429325" fill="none"></path></g><g><path style="fill: none;" stroke="rgb(51, 187, 238)" stroke-width="2px" d="M151.49739583333331,-29.44327947895215L157.32421875,8.629540670945731L163.15104166666666,23.06061117115297L168.97786458333334,56.302238617779004L174.8046875,65.92636662999017L180.63151041666666,92.74219615617422L186.45833333333334,117.37583887355305L192.28515625,124.48392086057272L198.11197916666666,83.50502464091204L203.93880208333334,81.3141137580102L209.765625,110.8943292616716L215.59244791666666,116.36504635958579L221.41927083333334,131.34952203817772L227.24609375,135.77330020018564L233.07291666666666,151.84925304227596L238.89973958333334,165.19855547570566L244.7265625,171.83267609169837L250.55338541666669,179.99480655805553L256.3802083333333,181.08813798734363L262.20703125,189.5362760249975L268.03385416666663,191.23087213323436L273.86067708333337,198.21794798970086L279.6875,203.5816246304805L285.51432291666663,212.23990487553172L291.34114583333337,216.836488092184L297.16796875,213.74549670831436L302.99479166666663,213.64325266366865L308.8216145833333,196.79856668153673L314.6484375,194.33536894923506L320.4752604166667,196.1063706546768L326.3020833333333,209.30248227692394L332.12890625,206.88738973645698L337.9557291666667,216.24243243831444L343.7825520833333,219.66263741405362L349.609375,228.241941950804L355.4361979166667,226.860398760644L361.2630208333333,232.78706717138192L367.08984375,240.03048155221484L372.9166666666667,239.91284918381925L378.7434895833333,246.22424960865195L384.5703125,247.06735989258536L390.3971354166667,252.68389140674174L396.2239583333333,256.51063994686217L402.05078125,257.976069316625L407.8776041666667,258.20659021942987L413.7044270833333,252.86906618233962L419.53125,225.27784915327052L425.3580729166667,234.18609847239009L431.1848958333333,244.4975941709425L437.01171875,257.52449382323493L442.8385416666667,267.0243843502035L448.6653645833333,273.5521444305774L454.4921875,256.57549791522166L460.3190104166667,256.1132000166168L466.1458333333333,255.55745163465977L471.97265625,266.82374666276854L477.7994791666667,274.4787728359151L483.62630208333337,277.48456934436257L489.453125,215.66537214722663L495.27994791666663,163.55499709490786L501.10677083333337,180.9368653709075L506.93359375,204.2909231544662L512.7604166666666,225.50879680357156L518.5872395833334,244.47396672512164L524.4140625,257.06211069633105L530.2408854166666,267.78725828176465L536.0677083333333,274.04077832591963L541.89453125,280.9537774829488L547.7213541666667,282.24247753782106L553.5481770833334,284.64185698166807L559.375,291.6512180832643L565.2018229166666,299.0802292331379L571.0286458333333,304.3249651702834L576.85546875,271.9958448387738L582.6822916666667,271.731902612153L588.5091145833334,282.30566163459616L594.3359375,292.0264724359242L600.1627604166666,297.44921455344274L605.9895833333333,304.2116436514897L611.81640625,284.7222759137239L617.6432291666666,293.90163400771087L623.4700520833334,305.57091605645786L629.296875,313.48444323789994L635.1236979166666,316.71273719233676L640.9505208333334,321.59971775893064L646.77734375,320.0162850728404L652.6041666666666,324.8802349162189L658.4309895833334,327.8595865149923L664.2578125,329.97348363836875L670.0846354166666,329.40599274476773L675.9114583333334,330.4515174403587L681.73828125,317.2010324925065L687.5651041666666,318.59974684483586L693.3919270833334,328.01905959478336L699.21875,334.8451871619005L705.0455729166667,338.4410917909855L710.8723958333334,299.85547342423587L716.69921875,287.8778405857771L722.5260416666666,298.43762379982707L728.3528645833333,304.84053723572873L734.1796875,307.3715465334978L740.0065104166667,319.1100194268369L745.8333333333334,326.0356146547276L751.66015625,332.2038098296123L757.4869791666666,338.02770189653916L763.3138020833333,344.9136643445594L769.140625,346.49343532855676L774.9674479166667,345.4117500636972L780.7942708333334,344.6024184062665L786.62109375,325.12377015763286L792.4479166666666,325.5948271342442L798.2747395833333,330.0914457919568L804.1015625,332.03706878104407L809.9283854166667,338.8791507918788L815.7552083333334,346.9651853547486L821.58203125,344.7323164521563L827.4088541666666,344.2148563821335L833.2356770833333,350.2714675853402L839.0625,355.34160188245033L844.8893229166667,355.7351575570241L850.7161458333334,342.2176991691104L856.54296875,334.5114765118382L862.3697916666666,334.6871448996967L868.1966145833333,341.6771263997737L874.0234375,350.36281431763706L879.8502604166666,355.33994701785576L885.6770833333334,358.7594972963533L891.50390625,360.01304137942907L897.3307291666666,359.56779245559255L903.1575520833334,358.933704687937L908.984375,352.6921915139274L914.8111979166666,349.85945499151296L920.6380208333334,351.5489097642152L926.46484375,356.22356692023004L932.2916666666666,351.22067083206804L938.1184895833334,349.50100188761667L943.9453125,352.09747490979004L949.7721354166666,355.3394765783654L955.5989583333334,358.1061065769527L961.42578125,360.50271199209186L967.2526041666667,360.13273593573945L973.0794270833334,349.6799801966648L978.90625,353.7761361487586L984.7330729166666,353.1732244690175L990.5598958333333,358.0977051523929L996.38671875,361.01737677890503L1002.2135416666667,364.9137905242769" fill="none"></path></g></g></g></g><g opacity="0.20000000298023224"><g><g><g><path style="fill: none;" stroke="rgb(238, 51, 119)" stroke-width="2px" d="M145.67057291666669,-19.665572673082337L151.49739583333331,42.512123471125996L157.32421875,91.2622464336455L163.15104166666666,88.55085062608123L168.97786458333334,-34.35522058233616L174.8046875,111.03519982472064L180.63151041666666,140.57086105272177L186.45833333333334,119.92086437344554L192.28515625,133.57920724712315L198.11197916666666,4.614854648709332L203.93880208333334,139.25545951165262L209.765625,145.25820830650628L215.59244791666666,148.18323815055194L221.41927083333334,135.71207554824653L227.24609375,168.20607800781727L233.07291666666666,175.94071259535852L238.89973958333334,169.1640408039093L244.7265625,178.43941386602822L250.55338541666669,177.10109670460227L256.3802083333333,189.55310168489814L262.20703125,180.74030962586403L268.03385416666663,196.91050676442688L273.86067708333337,194.88067705929285L279.6875,208.95845543872568L285.51432291666663,204.2404825408012L291.34114583333337,198.53126609511673L297.16796875,209.1229495620355L302.99479166666663,176.19012931175533L308.8216145833333,183.26872767694297L314.6484375,179.67812364734712L320.4752604166667,216.9618686037138L326.3020833333333,197.2738888654858L332.12890625,218.53672521002593L337.9557291666667,219.60417034383866L343.7825520833333,232.05903467070314L349.609375,224.75571208912882L355.4361979166667,221.80120033957067L361.2630208333333,230.15978519618514L367.08984375,233.3939001923427L372.9166666666667,228.22241450473666L378.7434895833333,217.27041252236816L384.5703125,239.16977004893127L390.3971354166667,238.62427820730954L396.2239583333333,250.21093258447945L402.05078125,242.7385205011815L407.8776041666667,208.86457696370783L413.7044270833333,156.0306331124157L419.53125,226.9325939035043L425.3580729166667,239.92790536768737L431.1848958333333,252.0750835798681L437.01171875,263.0978441778571L442.8385416666667,256.60834268946206L448.6653645833333,259.58265541400766L454.4921875,217.8689963025972L460.3190104166667,227.82362756598744L466.1458333333333,255.74962985515597L471.97265625,254.14048151392493L477.7994791666667,257.46755590941757L483.62630208333337,258.8591896723956L489.453125,-17.45394979789847L495.27994791666663,185.94515776075423L501.10677083333337,226.41412288695577L506.93359375,240.57379090972245L512.7604166666666,255.6275255447254L518.5872395833334,261.86516966018826L524.4140625,269.7741222688929L530.2408854166666,263.850577373989L536.0677083333333,271.4879329064861L541.89453125,268.6263294965029L547.7213541666667,255.99112209677696L553.5481770833334,281.7574088629335L559.375,288.27991538029164L565.2018229166666,281.08295027911663L571.0286458333333,192.37155959755185L576.85546875,239.39381006453186L582.6822916666667,259.2888473421335L588.5091145833334,280.30189934000373L594.3359375,278.5463422425092L600.1627604166666,281.13312159944326L605.9895833333333,249.58972933050248L611.81640625,265.56293791439384L617.6432291666666,285.26147681102157L623.4700520833334,284.8134172037244L629.296875,293.9831527280621L635.1236979166666,273.80277819279587L640.9505208333334,272.6767777260393L646.77734375,286.16579622309655L652.6041666666666,299.3871083976701L658.4309895833334,282.2017717435956L664.2578125,300.0352916289121L670.0846354166666,298.2849426269531L675.9114583333334,285.05699268355966L681.73828125,261.5371311251074L687.5651041666666,298.6558866784908L693.3919270833334,314.31441906653345L699.21875,317.5498973582871L705.0455729166667,175.65036637522283L710.8723958333334,226.29863592144102L716.69921875,269.28575608693063L722.5260416666666,289.5292660156265L728.3528645833333,271.5802693767473L734.1796875,287.6768587650731L740.0065104166667,290.8068424863741L745.8333333333334,287.5178790958598L751.66015625,295.8167853048071L757.4869791666666,312.75155129190534L763.3138020833333,315.61965971533215L769.140625,305.6362767009996L774.9674479166667,301.0526726678945L780.7942708333334,287.4171586129815L786.62109375,272.21182755008346L792.4479166666666,301.8383394093253L798.2747395833333,311.74746621446684L804.1015625,319.5268189399503L809.9283854166667,318.67130244662985L815.7552083333334,314.7518531377427L821.58203125,309.41823739372194L827.4088541666666,316.33357728179544L833.2356770833333,331.2377323494293L839.0625,328.7974945041351L844.8893229166667,305.236381765455L850.7161458333334,275.0000172369182L856.54296875,312.533577175811L862.3697916666666,315.9608716685325L868.1966145833333,325.97801029030234L874.0234375,328.8833055370487L879.8502604166666,334.94428288238123L885.6770833333334,329.9539929656312L891.50390625,322.4849457205273L897.3307291666666,325.16066096769646L903.1575520833334,297.353255183436L908.984375,323.0358550027013L914.8111979166666,307.3216470521875L920.6380208333334,326.6625225408934L926.46484375,320.85406634537503L932.2916666666666,307.26537919649854L938.1184895833334,324.3166073905304L943.9453125,324.1190929203294L949.7721354166666,318.6727780736983L955.5989583333334,330.07129255263135L961.42578125,329.01024520676583L967.2526041666667,279.8649503365159L973.0794270833334,324.767807173077L978.90625,310.2324465410784L984.7330729166666,331.0077030239627L990.5598958333333,327.3367207199335L996.38671875,335.57884592260234L1002.2135416666667,336.3632744648494" fill="none"></path></g><g><path style="fill: none;" stroke="rgb(51, 187, 238)" stroke-width="2px" d="M139.84375,-32.76497456431385L145.67057291666669,2.874492935836338L151.49739583333331,32.878147501498475L157.32421875,64.14007794857028L163.15104166666666,44.34363706782462L168.97786458333334,105.66218126378956L174.8046875,80.27526851557198L180.63151041666666,132.82000988535583L186.45833333333334,154.2458698321134L192.28515625,135.13211836852136L198.11197916666666,22.08484946563841L203.93880208333334,78.02929263375701L209.765625,155.25213516131046L215.59244791666666,124.56973299197855L221.41927083333334,153.82395282201472L227.24609375,142.408563092351L233.07291666666666,175.9623006619513L238.89973958333334,185.22206986136737L244.7265625,181.78372603654861L250.55338541666669,192.2379055693746L256.3802083333333,182.72812736034393L262.20703125,202.20844705402854L268.03385416666663,193.7727619595826L273.86067708333337,208.69855104759338L279.6875,211.62713465094566L285.51432291666663,225.22732045780867L291.34114583333337,223.73136139288547L297.16796875,209.10901024751368L302.99479166666663,213.4898866089061L308.8216145833333,171.5315389148891L314.6484375,190.64057245664299L320.4752604166667,198.76287316717205L326.3020833333333,229.09664950612935L332.12890625,203.2647509481758L337.9557291666667,230.27499643899498L343.7825520833333,224.79294486623257L349.609375,241.110898738727L355.4361979166667,224.788083977066L361.2630208333333,241.67706978321075L367.08984375,250.89560312032702L372.9166666666667,239.7364006312564L378.7434895833333,255.691350244917L384.5703125,248.33202531840652L390.3971354166667,261.1086886776611L396.2239583333333,262.2507627569139L402.05078125,260.1742133712396L407.8776041666667,258.55237157363445L413.7044270833333,244.86278012674302L419.53125,183.89102360978723L425.3580729166667,247.54847245104614L431.1848958333333,259.964837718755L437.01171875,277.0648433016613L442.8385416666667,281.27422014065087L448.6653645833333,283.3437845511362L454.4921875,231.1105281421915L460.3190104166667,255.4197531687096L466.1458333333333,254.72382906172422L471.97265625,283.72318920493126L477.7994791666667,285.96131209563464L483.62630208333337,281.9932641070336L489.453125,122.93657635152341L495.27994791666663,85.38943451642992L501.10677083333337,207.00966778490692L506.93359375,239.3220098298043L512.7604166666666,257.3356072772294L518.5872395833334,272.92172160744667L524.4140625,275.94432665314525L530.2408854166666,283.87497965991497L536.0677083333333,283.4210583921522L541.89453125,291.32327621849254L547.7213541666667,284.1755276201293L553.5481770833334,288.2409261474386L559.375,302.16525973565876L565.2018229166666,310.22374595794827L571.0286458333333,312.19206907600164L576.85546875,223.50216434150934L582.6822916666667,271.3359892722219L588.5091145833334,298.16630016826093L594.3359375,306.607688637916L600.1627604166666,305.5833277297206L605.9895833333333,314.35528729856014L611.81640625,255.48822430707514L617.6432291666666,307.6706711486913L623.4700520833334,323.0748391295783L629.296875,325.3547340100631L635.1236979166666,321.55517812399194L640.9505208333334,328.9301886088215L646.77734375,317.64113604370505L652.6041666666666,332.17615968128666L658.4309895833334,332.32861391315237L664.2578125,333.14432932343334L670.0846354166666,328.55475640436634L675.9114583333334,332.01980448374525L681.73828125,297.32530507072806L687.5651041666666,320.69781837332994L693.3919270833334,342.1480287197046L699.21875,345.0843785125762L705.0455729166667,343.83494873461314L710.8723958333334,241.97704587411138L716.69921875,269.911391328089L722.5260416666666,314.27729862090206L728.3528645833333,314.4449073895812L734.1796875,311.1680604801513L740.0065104166667,336.71772876684554L745.8333333333334,336.4240074965637L751.66015625,341.45610259193927L757.4869791666666,346.76353999692947L763.3138020833333,355.24260801658966L769.140625,348.8630918045528L774.9674479166667,343.78922216640785L780.7942708333334,343.38842092012055L786.62109375,295.90579778468236L792.4479166666666,326.30141259916127L798.2747395833333,336.83637377852574L804.1015625,334.9555032646749L809.9283854166667,349.142273808131L815.7552083333334,359.09423719905317L821.58203125,341.38301309826784L827.4088541666666,343.4386662770994L833.2356770833333,359.3563843901502L839.0625,362.9468033281155L844.8893229166667,356.32549106888473L850.7161458333334,321.9415115872398L856.54296875,322.95214252592996L862.3697916666666,334.95064748148434L868.1966145833333,352.16209864988923L874.0234375,363.3913461944321L879.8502604166666,362.8056460681837L885.6770833333334,363.88882271409966L891.50390625,361.8933575040428L897.3307291666666,358.8999190698378L903.1575520833334,357.9825730364537L908.984375,343.3299217529129L914.8111979166666,345.6103502078913L920.6380208333334,354.0830919232685L926.46484375,363.2355526542524L932.2916666666666,343.716326699825L938.1184895833334,346.9214984709397L943.9453125,355.99218444305006L949.7721354166666,360.2024790812284L955.5989583333334,362.2560515748337L961.42578125,364.0976201148005L967.2526041666667,359.57777185121085L973.0794270833334,334.0008465880528L978.90625,359.9203700768994L984.7330729166666,352.26885694940574L990.5598958333333,365.48442617745604L996.38671875,365.3968842186732L1002.2135416666667,370.7584111423348" fill="none"></path></g></g></g></g></g></g><g transform="translate(41, 376)" clip-path="url(#clip_1)"><clipPath id="clip_1"><rect width="1048" height="23"></rect></clipPath><g><g><line x1="0" y1="0" x2="0" y2="5" style="visibility: inherit;" fill="rgb(0, 0, 0)" stroke="rgb(204, 204, 204)" stroke-width="1px"></line><line x1="116.53645833333333" y1="0" x2="116.53645833333333" y2="5" style="visibility: inherit;" fill="rgb(0, 0, 0)" stroke="rgb(204, 204, 204)" stroke-width="1px"></line><line x1="233.07291666666666" y1="0" x2="233.07291666666666" y2="5" style="visibility: inherit;" fill="rgb(0, 0, 0)" stroke="rgb(204, 204, 204)" stroke-width="1px"></line><line x1="349.609375" y1="0" x2="349.609375" y2="5" style="visibility: inherit;" fill="rgb(0, 0, 0)" stroke="rgb(204, 204, 204)" stroke-width="1px"></line><line x1="466.1458333333333" y1="0" x2="466.1458333333333" y2="5" style="visibility: inherit;" fill="rgb(0, 0, 0)" stroke="rgb(204, 204, 204)" stroke-width="1px"></line><line x1="582.6822916666667" y1="0" x2="582.6822916666667" y2="5" style="visibility: inherit;" fill="rgb(0, 0, 0)" stroke="rgb(204, 204, 204)" stroke-width="1px"></line><line x1="699.21875" y1="0" x2="699.21875" y2="5" style="visibility: inherit;" fill="rgb(0, 0, 0)" stroke="rgb(204, 204, 204)" stroke-width="1px"></line><line x1="815.7552083333334" y1="0" x2="815.7552083333334" y2="5" style="visibility: inherit;" fill="rgb(0, 0, 0)" stroke="rgb(204, 204, 204)" stroke-width="1px"></line><line x1="932.2916666666666" y1="0" x2="932.2916666666666" y2="5" style="visibility: inherit;" fill="rgb(0, 0, 0)" stroke="rgb(204, 204, 204)" stroke-width="1px"></line><line x1="1048.828125" y1="0" x2="1048.828125" y2="5" style="visibility: inherit;" fill="rgb(0, 0, 0)" stroke="rgb(204, 204, 204)" stroke-width="1px"></line></g><g transform="translate(0, 8)"><text style="text-anchor: middle; visibility: hidden; font-family: Roboto, sans-serif; font-size: 12px; font-weight: 200;" x="0" y="0" dx="0em" dy="0.95em" fill="rgb(255, 255, 255)" stroke="none" stroke-width="1px">-20</text><text style="text-anchor: middle; visibility: inherit; font-family: Roboto, sans-serif; font-size: 12px; font-weight: 200;" x="116.53645833333333" y="0" dx="0em" dy="0.95em" fill="rgb(255, 255, 255)" stroke="none" stroke-width="1px">0</text><text style="text-anchor: middle; visibility: inherit; font-family: Roboto, sans-serif; font-size: 12px; font-weight: 200;" x="233.07291666666666" y="0" dx="0em" dy="0.95em" fill="rgb(255, 255, 255)" stroke="none" stroke-width="1px">20</text><text style="text-anchor: middle; visibility: inherit; font-family: Roboto, sans-serif; font-size: 12px; font-weight: 200;" x="349.609375" y="0" dx="0em" dy="0.95em" fill="rgb(255, 255, 255)" stroke="none" stroke-width="1px">40</text><text style="text-anchor: middle; visibility: inherit; font-family: Roboto, sans-serif; font-size: 12px; font-weight: 200;" x="466.1458333333333" y="0" dx="0em" dy="0.95em" fill="rgb(255, 255, 255)" stroke="none" stroke-width="1px">60</text><text style="text-anchor: middle; visibility: inherit; font-family: Roboto, sans-serif; font-size: 12px; font-weight: 200;" x="582.6822916666667" y="0" dx="0em" dy="0.95em" fill="rgb(255, 255, 255)" stroke="none" stroke-width="1px">80</text><text style="text-anchor: middle; visibility: inherit; font-family: Roboto, sans-serif; font-size: 12px; font-weight: 200;" x="699.21875" y="0" dx="0em" dy="0.95em" fill="rgb(255, 255, 255)" stroke="none" stroke-width="1px">100</text><text style="text-anchor: middle; visibility: inherit; font-family: Roboto, sans-serif; font-size: 12px; font-weight: 200;" x="815.7552083333334" y="0" dx="0em" dy="0.95em" fill="rgb(255, 255, 255)" stroke="none" stroke-width="1px">120</text><text style="text-anchor: middle; visibility: inherit; font-family: Roboto, sans-serif; font-size: 12px; font-weight: 200;" x="932.2916666666666" y="0" dx="0em" dy="0.95em" fill="rgb(255, 255, 255)" stroke="none" stroke-width="1px">140</text><text style="text-anchor: middle; visibility: hidden; font-family: Roboto, sans-serif; font-size: 12px; font-weight: 200;" x="1048.828125" y="0" dx="0em" dy="0.95em" fill="rgb(255, 255, 255)" stroke="none" stroke-width="1px">160</text></g><line x1="0" y1="0" x2="1048.828125" y2="0" fill="rgb(0, 0, 0)" stroke="rgb(204, 204, 204)" stroke-width="1px"></line></g></g></g></g></svg>